<?xml version="1.0" encoding="UTF-8"?>
<svg width="16px" height="16px" viewBox="0 0 16 16" version="1.1" xmlns="http://www.w3.org/2000/svg" xmlns:xlink="http://www.w3.org/1999/xlink">
    <!-- Generator: Sketch 50.2 (55047) - http://www.bohemiancoding.com/sketch -->
    <title>ic_关闭</title>
    <desc>Created with Sketch.</desc>
    <defs></defs>
    <g id="设计规范" stroke="none" stroke-width="1" fill="none" fill-rule="evenodd">
        <g transform="translate(-368.000000, -3019.000000)" fill="#888888" fill-rule="nonzero" id="ic_关闭">
            <g transform="translate(368.000000, 3019.000000)">
                <path d="M13.6566196,2.34321653 C12.0948452,0.780905504 10.0470632,0 7.99965624,0 C5.95237425,0 3.90509227,0.780905504 2.34294286,2.34309153 C-0.780980953,5.46708856 -0.780980953,10.5327864 2.34294286,13.6567835 C3.90521727,15.2190945 5.95287426,16 8.00015625,16 C10.0476882,16 12.0949702,15.2190945 13.6571196,13.6572835 C16.7810434,10.5329114 16.7810434,5.46721356 13.6566196,2.34321653 Z M12.9919842,12.9923825 C11.6584634,14.3253096 9.88593572,15.0593383 8.00003125,15.0593383 C6.11450179,15.0593383 4.34134908,14.3253096 3.00795325,12.9918825 C0.255535243,10.2394 0.255535243,5.76072503 3.00795325,3.00836751 C4.34134908,1.67531544 6.11400178,0.940786749 7.99965624,0.940786749 C9.88543571,0.940786749 11.6580884,1.67531544 12.9914842,3.00836751 C15.7437772,5.76072503 15.7442773,10.2394 12.9919842,12.9923825 Z" id="Shape"></path>
                <path d="M10.8538863,5.14625647 C10.7603331,5.05261409 10.6334024,5 10.5010449,5 C10.3686873,5 10.2417566,5.05261409 10.1482034,5.14625647 L7.99998865,7.29438871 L5.8519065,5.14625647 C5.65695183,4.95127317 5.34117831,4.95127317 5.14622364,5.14625647 C4.95126897,5.34123976 4.95126897,5.65705963 5.14622364,5.85204292 L7.2943058,8.00004253 L5.14622364,10.1480421 C5.05260307,10.2415864 5,10.3685138 5,10.500869 C5,10.6332243 5.05260307,10.7601517 5.14622364,10.8536959 C5.23971067,10.9474836 5.36671787,11.0001365 5.49913138,10.9999997 C5.62671396,10.9999997 5.75442916,10.9513202 5.8519065,10.8536959 L7.99998865,8.70569634 L10.1480708,10.8536959 C10.2454155,10.9511876 10.3731307,10.9999997 10.5008459,10.9999997 C10.6285611,10.9999997 10.7562763,10.9513202 10.8537537,10.8536959 C10.9473742,10.7601517 10.9999773,10.6332243 10.9999773,10.500869 C10.9999773,10.3685138 10.9473742,10.2415864 10.8537537,10.1480421 L8.70567151,8.00004253 L10.8537537,5.85204292 C10.9473674,5.7584763 10.9999751,5.63154337 11,5.49917717 C11.0000249,5.36681098 10.9474648,5.23985827 10.8538863,5.14625647 Z" id="Shape"></path>
            </g>
        </g>
    </g>
</svg>