<?xml version="1.0" encoding="UTF-8"?>
<svg width="34px" height="31px" viewBox="0 0 34 31" version="1.1" xmlns="http://www.w3.org/2000/svg" xmlns:xlink="http://www.w3.org/1999/xlink">
    <!-- Generator: Sketch 50.2 (55047) - http://www.bohemiancoding.com/sketch -->
    <title>icon_访客登记</title>
    <desc>Created with Sketch.</desc>
    <defs></defs>
    <g id="访客登记" stroke="none" stroke-width="1" fill="none" fill-rule="evenodd">
        <g id="访客登记-1" transform="translate(-171.000000, -148.000000)" fill="#FFFFFF" fill-rule="nonzero">
            <g id="icon_访客登记" transform="translate(171.000000, 148.000000)">
                <path d="M25.2924694,4.77747276e-16 C25.461763,0.0344253193 25.6310566,0.0688506385 25.8003503,0.120488617 C27.5271454,0.654081066 28.5090485,1.8761799 28.8645651,3.63187118 C28.9661413,4.14825097 28.9661413,4.68184342 29,5.24986119 C28.2720374,5.35313715 27.5948628,5.43920044 26.8838295,5.52526374 L26.8838295,4.49250416 C26.8669002,3.95891172 26.7145359,3.49416991 26.3759486,3.08106607 C25.9527145,2.54747363 25.3940455,2.28928373 24.6999416,2.28928373 L7.87215412,2.28928373 C6.65323993,2.28928373 5.43432574,2.28928373 4.21541156,2.30649639 C3.08114419,2.30649639 2.16695855,3.18434203 2.08231173,4.33759023 C2.08231173,4.45807885 2.06538237,4.5613548 2.06538237,4.68184342 L2.06538237,26.3009439 C2.06538237,26.5935591 2.0992411,26.903387 2.18388792,27.1787896 C2.4716871,28.1254858 3.25043783,28.6762909 4.23234092,28.6762909 L15.456509,28.6762909 C18.5207239,28.6762909 21.5680093,28.6590783 24.6322242,28.6935036 C26.0373614,28.7107163 26.8669002,27.5230428 26.8669002,26.4386452 L26.8669002,20.2937257 L26.8669002,19.9666852 C27.5440747,19.8806219 28.2212493,19.7773459 28.9322825,19.6912826 C28.9322825,19.7773459 28.9492119,19.8634092 28.9492119,19.9322599 C28.9492119,22.0666297 28.9661413,24.2009994 28.9492119,26.3525819 C28.9322825,27.9533592 28.3566842,29.278734 27.0700525,30.242643 C26.5621716,30.6213215 26.0035026,30.8450861 25.3771162,30.948362 C25.3432574,30.948362 25.3093987,30.9827873 25.27554,31 L3.69060128,31 C3.67367192,30.9827873 3.65674256,30.9655747 3.62288383,30.9655747 C1.82837128,30.6557468 0.761821366,29.5369239 0.203152364,27.8328706 C0.101576182,27.5402554 0.0677174548,27.2132149 0,26.903387 L0,4.11382565 C0.0338587274,3.94169906 0.0677174548,3.76957246 0.101576182,3.61465852 C0.507880911,1.89339256 1.45592528,0.671293726 3.18272037,0.154913937 C3.35201401,0.103275958 3.52130765,0.0688506385 3.69060128,0.0344253193 C10.9025102,0 18.0974898,0 25.2924694,4.77747276e-16 Z" id="Shape"></path>
                <path d="M34,11.00897 C33.8296122,11.2503607 33.6762632,11.5262356 33.4888367,11.7503841 C33.079906,12.2159231 32.6539365,12.6814622 32.2279671,13.1470012 C30.9500588,11.7331419 29.706228,10.3537669 28.4283196,8.9571498 C28.9565217,8.37091544 29.4676851,7.80192327 29.9958872,7.25017329 C30.319624,6.90532955 30.8648649,6.92257174 31.1886016,7.26741548 C32.0575793,8.21573576 32.926557,9.16405604 33.7784959,10.1296185 C33.8807286,10.2330716 33.9318449,10.3882513 34,10.5261888 L34,11.00897 Z M27.559342,9.85374352 C28.8542891,11.284845 30.1321974,12.6814622 31.4101058,14.0953215 C30.8989424,14.6643137 30.3877791,15.2333058 29.8766157,15.7850558 C27.4400705,18.474837 25.0035253,21.1646181 22.56698,23.8371571 C22.4988249,23.9233681 22.3625147,23.9923368 22.260282,23.9923368 C21.0675676,24.009579 19.8748531,23.9923368 18.6650999,23.9923368 C18.6310223,23.9923368 18.579906,23.9750946 18.5287897,23.9750946 L18.5287897,22.3026025 C18.5287897,21.5439463 18.5287897,20.7680478 18.5458284,20.0093916 C18.5458284,19.9059385 18.5969448,19.768001 18.6650999,19.6817901 L27.4571093,9.95719664 C27.4911868,9.93995445 27.5082256,9.90547008 27.559342,9.85374352 Z M21.9024677,18.0437823 C21.4594595,18.5265635 21.03349,18.9921026 20.6245593,19.4576416 C20.5904818,19.492126 20.573443,19.5266104 20.573443,19.5610948 C20.5223267,19.9231807 20.4712103,20.2680244 20.420094,20.6301104 L21.5957697,20.6301104 C21.5616921,21.061165 21.5446533,21.4922197 21.5105758,21.9405166 C21.8854289,21.9060322 22.2262045,21.88879 22.56698,21.8543056 C22.6010576,21.8543056 22.6521739,21.8198213 22.6692127,21.8025791 C23.1122209,21.3197978 23.5552291,20.8370166 23.9811986,20.3369932 C23.2826087,19.5610948 22.6010576,18.8196807 21.9024677,18.0437823 Z M22.8907168,17.7506651 C22.9418331,17.7161808 23.0440658,17.647212 23.1292597,17.5610011 C24.6797885,15.8540246 26.2303173,14.1470481 27.7808461,12.4228294 C27.9682726,12.2159231 27.9853114,12.0090169 27.8319624,11.8538372 C27.6786134,11.6986575 27.5252644,11.7331419 27.3207991,11.9745325 C25.787309,13.681509 24.2367803,15.3712433 22.7032902,17.0782198 C22.6351351,17.1471886 22.5840188,17.2333995 22.5499412,17.3196105 C22.4817861,17.5265167 22.6351351,17.7334229 22.8907168,17.7506651 Z M15.1721504,9.30199353 L6.1586369,9.30199353 C5.63043478,9.30199353 5.28965922,9.0778451 5.10223267,8.62954824 C4.91480611,8.18125138 5.01703878,7.61225921 5.37485311,7.31914204 C5.54524089,7.16396235 5.80082256,7.11223579 6.02232667,7.02602486 C6.07344301,7.00878267 6.14159812,7.02602486 6.19271445,7.02602486 C12.1903643,7.02602486 18.1709753,7.04326705 24.1686251,7.00878267 C25.0376028,7.00878267 25.5317274,7.83640764 25.2591069,8.59506387 C25.0887192,9.0778451 24.7309048,9.31923572 24.1515864,9.31923572 C21.1527615,9.30199353 18.1539365,9.30199353 15.1721504,9.30199353 Z M12.7356052,13.8711731 L19.2955347,13.8711731 C19.7726204,13.8711731 20.113396,14.0608371 20.3178613,14.4746496 C20.5393655,14.9229465 20.4882491,15.3540011 20.1985899,15.7505714 C20.0282021,15.9919621 19.7726204,16.1298996 19.4829612,16.1471417 C19.4148061,16.1471417 19.3296122,16.1643839 19.2614571,16.1643839 C14.9165687,16.1643839 10.5546416,16.1471417 6.20975323,16.1643839 C5.28965922,16.1643839 4.846651,15.3195168 5.08519389,14.5953449 C5.23854289,14.1298059 5.613396,13.8539309 6.12455934,13.8539309 C8.32256169,13.8711731 10.520564,13.8711731 12.7356052,13.8711731 Z M9.27673325,23.0785009 L6.12455934,23.0785009 C5.460047,23.0785009 5.01703878,22.6129619 5,21.9405166 C5,21.2680713 5.44300823,20.7680478 6.09048179,20.7680478 C8.20329025,20.7680478 10.3160987,20.7508057 12.4289072,20.7680478 C13.0934195,20.7680478 13.5364277,21.2853135 13.519389,21.9577587 C13.5023502,22.6129619 13.0423032,23.0612587 12.3948296,23.0612587 C11.3725029,23.0785009 10.3331375,23.0785009 9.27673325,23.0785009 Z" id="Shape"></path>
            </g>
        </g>
    </g>
</svg>