<?xml version="1.0" encoding="UTF-8"?>
<svg width="35px" height="31px" viewBox="0 0 35 31" version="1.1" xmlns="http://www.w3.org/2000/svg" xmlns:xlink="http://www.w3.org/1999/xlink">
    <!-- Generator: Sketch 50.2 (55047) - http://www.bohemiancoding.com/sketch -->
    <title>icon_来访车辆登记车辆</title>
    <desc>Created with Sketch.</desc>
    <defs></defs>
    <g id="访客登记" stroke="none" stroke-width="1" fill="none" fill-rule="evenodd">
        <g id="访客登记-1" transform="translate(-170.000000, -345.000000)" fill-rule="nonzero">
            <g id="icon_来访车辆登记车辆" transform="translate(171.000000, 346.000000)">
                <g id="库存在售车辆">
                    <path d="M32.9772592,27.6762421 C32.9772592,28.9785708 31.9213682,30 30.5751317,30 C29.2307614,30 28.1766348,28.9783739 28.1766348,27.6762421 L28.1766348,27.3595898 L20.6992134,27.3595898 L20.6992134,27.6762421 C20.6992134,28.9785708 19.6451885,30 18.2989521,30 C16.9527156,30 15.8972996,28.9783739 15.8972996,27.6762421 L15.8972996,27.3595898 L14.875,27.3595898 L14.875,22.1003393 C14.875,20.8819915 15.7165844,19.8421771 16.8705014,19.5349473 L17.5529506,16.6382934 C18.0370067,15.1065436 19.1520051,14.7945205 20.0027848,14.7945205 L28.8706544,14.7945205 C30.1279584,14.7945205 31.0678742,15.4755609 31.3822086,16.6132108 L32.0360542,19.5489004 C33.1711396,19.8792758 34,20.9175472 34,22.1003393 L34,27.3595898 L32.9777004,27.3595898 L32.9777004,27.6762421 L32.9772592,27.6762421 Z M29.5674223,27.6762421 C29.5674223,28.2244821 30.0101168,28.6531856 30.5751317,28.6531856 C31.1421485,28.6531856 31.5864377,28.2242852 31.5864377,27.6762421 L31.5864377,27.3580796 L29.5674223,27.3580796 L29.5674223,27.6762421 Z M17.2876799,27.6762421 C17.2876799,28.2244821 17.7323424,28.6531856 18.298986,28.6531856 C18.8642044,28.6531856 19.3084258,28.2242852 19.3084258,27.6762421 L19.3084258,27.3580796 L17.2874424,27.3580796 L17.2874424,27.6762421 L17.2876799,27.6762421 Z M30.0310521,16.9270067 C29.8878983,16.4169487 29.4945391,16.1404485 28.8706543,16.1404485 L20.002615,16.1404485 C19.3899953,16.1404485 19.0914047,16.3694427 18.8960315,16.9850186 L18.3262324,19.4077939 L30.5769639,19.4077939 L30.0310521,16.9270067 Z M32.6087373,22.1003393 C32.6087373,21.4321686 32.0755156,20.8562194 31.3939825,20.790164 L31.0098864,20.7530981 L18.0100317,20.7530981 L18.0085048,20.7592375 L17.4909252,20.79151 C16.792291,20.8359957 16.2653803,21.398353 16.2653803,22.1001423 L16.2653803,26.0121188 L32.4818363,26.0121188 L32.4818363,26.0138917 L32.6087373,26.0138917 L32.6087373,22.1003393 Z M29.8926825,24.7067368 C29.1430844,24.7067368 28.5287681,24.1123039 28.5287681,23.3876316 C28.5287681,22.6607924 29.1430844,22.0678697 29.8926825,22.0678697 C30.6418735,22.0678697 31.2562237,22.6608252 31.2562237,23.3876316 C31.2562237,24.1123039 30.6421449,24.7067368 29.8926825,24.7067368 Z M29.8926825,22.7268478 C29.5162548,22.7268478 29.2118281,23.0234405 29.2118281,23.3876316 C29.2118281,23.7502796 29.5165262,24.0463799 29.8926825,24.0463799 C30.2672441,24.0463799 30.5748603,23.7504766 30.5748603,23.3876316 C30.5751317,23.0234733 30.2672441,22.7268478 29.8926825,22.7268478 Z M18.9798404,24.7067368 C18.2285797,24.7067368 17.6157903,24.1123039 17.6157903,23.3876316 C17.6157903,22.6607924 18.2286136,22.0678697 18.9798404,22.0678697 C19.7291671,22.0678697 20.3452138,22.6608252 20.3452138,23.3876316 C20.3452138,24.1123039 19.7294386,24.7067368 18.9798404,24.7067368 Z M18.9798404,22.7268478 C18.6050074,22.7268478 18.2969841,23.0234405 18.2969841,23.3876316 C18.2969841,23.7502796 18.6050075,24.0463799 18.9798404,24.0463799 C19.3546056,24.0463799 19.6624932,23.7504766 19.6624932,23.3876316 C19.6627647,23.0234733 19.354877,22.7268478 18.9798404,22.7268478 Z" id="Shape" fill="#FFFFFF"></path>
                    <polygon id="Shape" fill="#FFFFFF" points="11.9 14.3835616 11.9 17.6712329 8.5 17.6712329 8.5 14.3835616"></polygon>
                    <path d="M27.0063273,13.2936229 L29.75,13.2936229 C29.4943538,13.0780671 29.1771739,12.9265127 28.8268923,12.8617208 L15.6219159,0.219722627 C15.3167544,-0.0732408756 15.0113524,-0.0732408756 14.7061909,0.219722627 L1.48734198,12.8756871 C-0.236870629,13.0916381 0.0125603953,14.6140339 0.0125603953,14.6140339 C0.0125603953,15.6189837 0.860948673,16.0404441 1.90993939,16.0404441 L3.80718104,16.0404441 L3.80718104,18.2543378 L3.80718104,27.3583749 C3.80718104,28.3630942 4.65677116,29.1780822 5.70617395,29.1780822 L13.1768119,29.1780822 L13.1768119,27.6807204 L5.35541155,27.6807204 L5.35541155,14.6148903 L1.9927626,14.6148903 L15.1859954,1.93066381 L27.0063273,13.2936229 Z" id="Shape" stroke="#FFFFFF" stroke-width="0.5" fill="#FFFFFF"></path>
                    <path d="M3.825,18.0821918 L3.85022449,18.0821918 C3.84065658,18.0821918 3.83576387,18.093336 3.825,18.093336 L3.825,18.0821918 Z" id="Shape" fill="#000000"></path>
                </g>
            </g>
        </g>
    </g>
</svg>