<?xml version="1.0" encoding="UTF-8"?>
<svg width="12px" height="12px" viewBox="0 0 12 12" version="1.1" xmlns="http://www.w3.org/2000/svg" xmlns:xlink="http://www.w3.org/1999/xlink">
    <!-- Generator: Sketch 50.2 (55047) - http://www.bohemiancoding.com/sketch -->
    <title>我_icon_小区</title>
    <desc>Created with Sketch.</desc>
    <defs></defs>
    <g id="个人中心" stroke="none" stroke-width="1" fill="none" fill-rule="evenodd">
        <g id="我的4" transform="translate(-146.000000, -183.000000)" fill="#FFFFFF">
            <g id="我_icon_小区" transform="translate(146.000000, 183.000000)">
                <rect id="Rectangle-3" opacity="0.00999999978" x="0" y="0" width="12" height="12"></rect>
                <g id="Group" transform="translate(0.000000, 1.000000)" fill-rule="nonzero">
                    <path d="M11.161346,11 L0.840724763,11 C0.376876618,11 0,10.5517241 0,10 C0,9.44827586 0.376876618,9 0.840724763,9 L11.1592752,9 C11.6231234,9 12,9.44827586 12,10 C12,10.5517241 11.6251941,11 11.161346,11 Z" id="Shape"></path>
                    <path d="M6.52544873,10 L9,10 L9,2.96006422 C9,2.33393538 8.62035899,1.82620911 8.15023359,1.82620911 L6.98770593,1.82620911 C6.72608803,1.82620911 6.51561347,2.04093919 6.51561347,2.30784668 L6.51561347,4.65783664 L6.52544873,10 Z M4.99114827,5.70373458e-16 L2.18809934,5.70373458e-16 C1.53110401,5.70373458e-16 1,0.541842264 1,1.21212121 L1,10 L6.1792476,10 L6.1792476,1.21212121 C6.1792476,0.543849087 5.64814359,0 4.99114827,0 Z M2.86083108,8.24202288 C2.86083108,8.40457556 2.73100566,8.53702589 2.57167445,8.53702589 L1.85566757,8.53702589 C1.69633637,8.53702589 1.56651094,8.40457556 1.56651094,8.24202288 L1.56651094,7.51153923 C1.56651094,7.34898655 1.69633637,7.21653622 1.85566757,7.21653622 L2.57167445,7.21653622 C2.73100566,7.21653622 2.86083108,7.34898655 2.86083108,7.51153923 L2.86083108,8.24202288 Z M2.86083108,6.08669476 C2.86083108,6.24924744 2.73100566,6.38169777 2.57167445,6.38169777 L1.85566757,6.38169777 C1.69633637,6.38169777 1.56651094,6.24924744 1.56651094,6.08669476 L1.56651094,5.35621112 C1.56651094,5.19365844 1.69633637,5.06120811 1.85566757,5.06120811 L2.57167445,5.06120811 C2.73100566,5.06120811 2.86083108,5.19365844 2.86083108,5.35621112 L2.86083108,6.08669476 Z M2.86083108,3.93136665 C2.86083108,4.09391933 2.73100566,4.22636966 2.57167445,4.22636966 L1.85566757,4.22636966 C1.69633637,4.22636966 1.56651094,4.09391933 1.56651094,3.93136665 L1.56651094,3.200883 C1.56651094,3.03833032 1.69633637,2.90587999 1.85566757,2.90587999 L2.57167445,2.90587999 C2.73100566,2.90587999 2.86083108,3.03833032 2.86083108,3.200883 L2.86083108,3.93136665 Z M2.86083108,1.77603853 C2.86083108,1.93859121 2.73100566,2.07104154 2.57167445,2.07104154 L1.85566757,2.07104154 C1.69633637,2.07104154 1.56651094,1.93859121 1.56651094,1.77603853 L1.56651094,1.04555489 C1.56651094,0.883002208 1.69633637,0.750551876 1.85566757,0.750551876 L2.57167445,0.750551876 C2.73100566,0.750551876 2.86083108,0.883002208 2.86083108,1.04555489 L2.86083108,1.77603853 Z" id="Shape"></path>
                </g>
            </g>
        </g>
    </g>
</svg>