<?xml version="1.0" encoding="UTF-8"?>
<svg width="20px" height="20px" viewBox="0 0 20 20" version="1.1" xmlns="http://www.w3.org/2000/svg" xmlns:xlink="http://www.w3.org/1999/xlink">
    <!-- Generator: Sketch 50.2 (55047) - http://www.bohemiancoding.com/sketch -->
    <title>我_icon_访客登记</title>
    <desc>Created with Sketch.</desc>
    <defs></defs>
    <g id="个人中心" stroke="none" stroke-width="1" fill="none" fill-rule="evenodd">
        <g id="我的4" transform="translate(-15.000000, -303.000000)">
            <g id="访客登记" transform="translate(0.000000, 285.000000)">
                <g id="我_icon_访客登记" transform="translate(15.000000, 18.000000)">
                    <rect id="Rectangle-2" fill="#FFFFFF" opacity="0.01" x="0" y="0" width="20" height="20"></rect>
                    <g id="日历" transform="translate(1.000000, 1.000000)">
                        <path d="M5.35999999,4.66666667 C5.54388343,4.66666667 5.72023548,4.59642878 5.8502607,4.47140453 C5.98028593,4.34638028 6.05333334,4.176811 6.05333334,4.00000001 L6.05333334,0.666666669 C6.05333332,0.298476846 5.74291742,2.80249179e-08 5.36,2.80249179e-08 C4.97708259,2.80249179e-08 4.66666668,0.298476846 4.66666667,0.666666669 L4.66666667,4.00000001 C4.66666667,4.176811 4.73971408,4.34638027 4.8697393,4.47140452 C4.99976452,4.59642877 5.17611656,4.66666667 5.35999999,4.66666667 Z M12.64,4.66666667 C12.8238834,4.66666667 13.0002355,4.59642878 13.1302607,4.47140453 C13.2602859,4.34638028 13.3333333,4.176811 13.3333333,4.00000001 L13.3333333,0.666666669 C13.3333333,0.298476835 13.0229174,0 12.64,0 C12.2570826,0 11.9466667,0.298476835 11.9466667,0.666666669 L11.9466667,4.00000001 C11.9466667,4.176811 12.0197141,4.34638027 12.1497393,4.47140452 C12.2797645,4.59642877 12.4561166,4.66666667 12.64,4.66666667 Z" id="Shape" fill="#4777FA" fill-rule="nonzero"></path>
                        <path d="M16.6666667,3.33333333 L14.4686667,3.33333333 L14.4686667,4.26613333 C14.4686666,5.34615682 13.5732361,6.22168883 12.4686667,6.22168883 C11.3640972,6.22168883 10.4686667,5.34615682 10.4686667,4.26613333 L10.4686667,3.33333333 L7.46866666,3.33333333 L7.46866666,4.26613333 C7.46866666,5.34615684 6.57323616,6.22168889 5.46866666,6.22168889 C4.36409716,6.22168889 3.46866666,5.34615684 3.46866666,4.26613333 L3.46866666,3.33333333 L1.33333334,3.33333333 C0.6,3.33333333 0,3.92 0,4.63703704 L0,16.6962963 C0,17.4133333 0.6,18 1.33333334,18 L16.6666667,18 C17.4,18 18,17.4133333 18,16.6962963 L18,4.63703704 C18,3.92 17.4,3.33333333 16.6666667,3.33333333 Z" id="Shape" fill="#4777FA" fill-rule="nonzero"></path>
                        <path d="M5.33443983,15.3333333 L5.33443983,14.4691622 C5.33443983,13.8391048 5.82983706,13.3283423 6.44094052,13.3283423 L7.84757953,13.3283423 L7.84757953,11.7226382 C7.01268181,11.3751914 6.46559511,10.5403898 6.46445367,9.61212133 L6.46445367,9.60926927 C6.46438024,9.00553152 6.69700456,8.4265079 7.11112086,7.99965434 C7.52523717,7.57280078 8.08690031,7.33310649 8.6724758,7.33333349 C9.25805128,7.3331065 9.81971442,7.57280079 10.2338307,7.99965435 C10.647947,8.42650791 10.8805713,9.00553152 10.8804979,9.60926927 L10.8804979,9.61212133 C10.8793565,10.5403898 10.3322698,11.3751914 9.49737205,11.7226382 L9.49737205,13.3283423 L10.8934993,13.3283423 C11.5046028,13.3283423 12,13.8391048 12,14.4691622 L12,15.3333333 L5.33333333,15.3333333 L5.33443983,15.3333333 Z" id="Path" fill="#FFFFFF"></path>
                    </g>
                </g>
            </g>
        </g>
    </g>
</svg>