<?xml version="1.0" encoding="UTF-8"?>
<svg width="20px" height="20px" viewBox="0 0 20 20" version="1.1" xmlns="http://www.w3.org/2000/svg" xmlns:xlink="http://www.w3.org/1999/xlink">
    <!-- Generator: Sketch 50.2 (55047) - http://www.bohemiancoding.com/sketch -->
    <title>我_icon_家庭成员</title>
    <desc>Created with Sketch.</desc>
    <defs></defs>
    <g id="个人中心" stroke="none" stroke-width="1" fill="none" fill-rule="evenodd">
        <g id="我的4" transform="translate(-15.000000, -247.000000)">
            <g id="家庭成员" transform="translate(0.000000, 229.000000)">
                <g id="我_icon_家庭成员" transform="translate(15.000000, 18.000000)">
                    <rect id="Rectangle-2" fill="#FFFFFF" opacity="0.00999999978" x="0" y="0" width="20" height="20"></rect>
                    <g id="房子01" transform="translate(0.000000, 1.000000)" fill-rule="nonzero">
                        <path d="M10,3.33333333 L2.5,9.60713919 L2.5,16.0573417 C2.5,16.778661 3.24998358,17.5 4.00000821,17.5 L15.9999713,17.5 C16.7499754,17.5 17.5,16.7786807 17.5,16.0573417 L17.5,9.60713919 L9.99997947,3.33333333 L10,3.33333333 Z" id="Shape" fill="#FF5F79"></path>
                        <path d="M12.5481266,10.4575006 C11.9304397,9.84749982 10.9191288,9.84749982 10.3007691,10.4575006 L10.2213714,10.5358249 C10.0989106,10.6566303 9.90108936,10.6566303 9.77862856,10.5358249 L9.6992309,10.4575006 C9.08087115,9.84749982 8.07023314,9.84749982 7.45187339,10.4575006 C6.83418651,11.0668375 6.72451008,12.6193856 7.92825935,13.8685928 C8.60381233,14.5701932 9.33319422,14.9319456 9.72076247,15.0885943 C9.89974363,15.1609448 10.1009292,15.1609448 10.2792375,15.0885943 C10.6668058,14.9319456 11.3961877,14.5701932 12.0717406,13.8685928 C13.2754899,12.6193856 13.1658135,11.0675013 12.5481266,10.4575006 Z" id="Shape" fill="#FFFFFF"></path>
                        <path d="M19.9535748,8.68122862 C19.846177,8.97321316 19.5691987,9.16664737 19.2574051,9.16664737 L18.1845222,9.16664737 L10.0000269,2.13983702 L1.81549248,9.16666667 L0.742648661,9.16666667 C0.430835465,9.16666667 0.153896242,8.97321316 0.0464593837,8.68124791 C-0.0616616611,8.38856867 0.022747428,8.0600933 0.259945179,7.85766664 L8.96481331,0.378725044 C9.25782115,0.126724109 9.62894355,0 10.0000269,0 C10.3711102,0 10.7422326,0.126685515 11.0352404,0.378725044 L13.57154,2.55781238 L13.57154,1.41027125 C13.57154,1.02052756 13.8910161,0.705154924 14.2858309,0.705154924 L15.0001414,0.705154924 C15.3949366,0.705154924 15.7144323,1.02052756 15.7144323,1.41027125 L15.7144323,4.39879509 L19.7401086,7.85764734 C19.9772672,8.0600933 20.0616567,8.38858797 19.9535357,8.68122862 L19.9535748,8.68122862 Z" id="Shape" fill="#FF5F79"></path>
                    </g>
                </g>
            </g>
        </g>
    </g>
</svg>