<?xml version="1.0" encoding="UTF-8"?>
<svg width="20px" height="20px" viewBox="0 0 20 20" version="1.1" xmlns="http://www.w3.org/2000/svg" xmlns:xlink="http://www.w3.org/1999/xlink">
    <!-- Generator: Sketch 50.2 (55047) - http://www.bohemiancoding.com/sketch -->
    <title>我_icon_访客通行记录</title>
    <desc>Created with Sketch.</desc>
    <defs></defs>
    <g id="个人中心" stroke="none" stroke-width="1" fill="none" fill-rule="evenodd">
        <g id="我的4" transform="translate(-15.000000, -359.000000)">
            <g id="访客通行登记" transform="translate(0.000000, 341.000000)">
                <g id="我_icon_访客通行记录" transform="translate(15.000000, 18.000000)">
                    <rect id="Rectangle-2" fill="#FFFFFF" opacity="0.00999999978" x="0" y="0" width="20" height="20"></rect>
                    <g id="Group-8" transform="translate(2.000000, 1.000000)">
                        <rect id="Rectangle-10" fill="#4777FA" x="0" y="0" width="16" height="18.2857143" rx="2"></rect>
                        <g id="Group-9" transform="translate(9.142857, 8.000000)" fill="#FFFFFF">
                            <path d="M4.28424869,0.0514841846 C4.08146017,0.0995057013 3.90575637,0.222540234 3.79426538,0.394589279 L3.55555556,0.786709386 L4.95012346,1.54644209 L5.18883328,1.15432199 C5.29608569,0.981730285 5.3258815,0.77372665 5.27123564,0.579073634 C5.21658978,0.384420617 5.0823075,0.220234886 4.89986876,0.125006705 C4.68973454,-0.00322500878 4.43233458,-0.0346063096 4.19630297,0.0392304312 L4.28424869,0.0514841846 Z" id="Path"></path>
                            <polygon id="Path" points="0 7.81695739 1.79660549 6.38326825 0.439728618 5.62353554"></polygon>
                            <polygon id="Path" points="0.528528529 5.51221036 1.92309643 6.27194307 3.75739295 3.35554977 4.86299633 1.60326304 3.80764765 1.02733663 3.46842843 0.843530331"></polygon>
                        </g>
                        <path d="M3.55555556,3.42857143 C2.85424159,3.42857143 2.28571429,4.03530017 2.28571429,4.783738 L2.28571429,5.50197628 C2.28571429,6.25041412 2.85424159,6.85714286 3.55555556,6.85714286 L4.44444444,6.85714286 C5.14575841,6.85714286 5.71428571,6.25041412 5.71428571,5.50197628 L5.71428571,4.783738 C5.71428571,4.03530017 5.14575841,3.42857143 4.44444444,3.42857143 L3.55555556,3.42857143 Z" id="Path" fill="#FFFFFF"></path>
                        <path d="M8.56661145,11.4285714 L2.86195998,11.4285714 C2.52791239,11.4798926 2.28571429,11.720066 2.28571429,12 C2.28571429,12.279934 2.52791239,12.5201074 2.86195998,12.5714286 L8.56661145,12.5714286 C8.90065904,12.5201074 9.14285714,12.279934 9.14285714,12 C9.14285714,11.720066 8.90065904,11.4798926 8.56661145,11.4285714 Z" id="Path" fill="#FFFFFF"></path>
                        <path d="M10.7959544,8 L2.91833135,8 C2.55160548,8.05132116 2.28571429,8.29149461 2.28571429,8.57142857 C2.28571429,8.85136253 2.55160548,9.09153598 2.91833135,9.14285714 L10.7959544,9.14285714 C11.1626802,9.09153598 11.4285714,8.85136253 11.4285714,8.57142857 C11.4285714,8.29149461 11.1626802,8.05132116 10.7959544,8 Z" id="Path" fill="#FFFFFF"></path>
                    </g>
                </g>
            </g>
        </g>
    </g>
</svg>