<?xml version="1.0" encoding="UTF-8"?>
<svg width="36px" height="36px" viewBox="0 0 36 36" version="1.1" xmlns="http://www.w3.org/2000/svg" xmlns:xlink="http://www.w3.org/1999/xlink">
    <!-- Generator: Sketch 50.2 (55047) - http://www.bohemiancoding.com/sketch -->
    <title>消息中心_icon_系统消息</title>
    <desc>Created with Sketch.</desc>
    <defs>
        <linearGradient x1="100%" y1="2.2936022%" x2="2.79308165%" y2="97.2709805%" id="linearGradient-1">
            <stop stop-color="#C1B1FF" offset="0%"></stop>
            <stop stop-color="#6D4EE5" offset="100%"></stop>
        </linearGradient>
        <path d="M25.5260616,22.4271987 C25.6888837,22.4228059 25.8517058,22.4535554 26.0075499,22.5501968 C25.4423244,22.2075593 25.0701595,21.61014 25.0701595,20.9270614 L25.0701595,17.1163174 C25.0701595,14.3247003 22.9325374,11.994326 20.0761717,11.4210671 L20.0761717,11.2848906 C20.0761717,10.5732589 19.4667516,10 18.7154437,10 C17.9641358,10 17.3547158,10.5754553 17.3547158,11.2848906 L17.3547158,11.4210671 C14.4983501,11.994326 12.3607279,14.3225039 12.3607279,17.1163174 L12.3607279,20.9270614 C12.3607279,21.61014 11.986237,22.2075593 11.4233376,22.5501968 C11.5815077,22.4535554 11.7420038,22.4206095 11.9048259,22.4271987 C11.4047293,22.4293951 11,22.8093713 11,23.2837924 C11,23.7582136 11.4047293,24.1403862 11.907152,24.1403862 L25.5214095,24.1403862 C26.0238321,24.1403862 26.4285615,23.7582136 26.4285615,23.2837924 C26.4308875,22.8137641 26.0261581,22.4293951 25.5260616,22.4271987 Z M18.7177698,27.1428571 C19.9715003,27.1428571 20.9879757,26.1830329 20.9879757,24.9991764 L16.4475638,24.9991764 C16.4475638,26.1830329 17.4617132,27.1428571 18.7177698,27.1428571 Z" id="path-2"></path>
        <filter x="-22.7%" y="-14.6%" width="145.4%" height="140.8%" filterUnits="objectBoundingBox" id="filter-3">
            <feOffset dx="0" dy="1" in="SourceAlpha" result="shadowOffsetOuter1"></feOffset>
            <feGaussianBlur stdDeviation="1" in="shadowOffsetOuter1" result="shadowBlurOuter1"></feGaussianBlur>
            <feColorMatrix values="0 0 0 0 0.321710026   0 0 0 0 0.106133133   0 0 0 0 0.963754252  0 0 0 1 0" type="matrix" in="shadowBlurOuter1"></feColorMatrix>
        </filter>
    </defs>
    <g id="消息中心" stroke="none" stroke-width="1" fill="none" fill-rule="evenodd">
        <g id="消息主页" transform="translate(-263.000000, -90.000000)">
            <g id="消息中心_icon_系统消息" transform="translate(263.000000, 90.000000)">
                <rect id="Rectangle-4" fill="#FFFFFF" opacity="0.694633152" x="0" y="0" width="36" height="36"></rect>
                <g id="消息" transform="translate(0.000000, 1.000000)">
                    <path d="M0.714285714,8.15597098 L0.714285714,2.57142857 C0.714285714,1.46685907 1.60971621,0.571428571 2.71428571,0.571428571 L17.236908,0.571428571 C17.8733881,0.571428571 18.4718655,0.874376176 18.8486987,1.38731256 L21.9921875,5.66615513 L0.714285714,5.66615513 L0.714285714,8.15597098 Z" id="Path-21" fill="url(#linearGradient-1)"></path>
                    <path d="M2.71428571,3.14285714 L33.7142857,3.14285714 C34.8188552,3.14285714 35.7142857,4.03828764 35.7142857,5.14285714 L35.7142857,32.8571429 C35.7142857,33.9617124 34.8188552,34.8571429 33.7142857,34.8571429 L2.71428571,34.8571429 C1.60971621,34.8571429 0.714285714,33.9617124 0.714285714,32.8571429 L0.714285714,5.14285714 C0.714285714,4.03828764 1.60971621,3.14285714 2.71428571,3.14285714 Z" id="Rectangle-18" fill="url(#linearGradient-1)"></path>
                    <g id="Shape" fill-rule="nonzero">
                        <use fill="black" fill-opacity="1" filter="url(#filter-3)" xlink:href="#path-2"></use>
                        <use fill="#FFFFFF" fill-rule="evenodd" xlink:href="#path-2"></use>
                    </g>
                </g>
            </g>
        </g>
    </g>
</svg>