<?xml version="1.0" encoding="UTF-8"?>
<svg width="25px" height="25px" viewBox="0 0 25 25" version="1.1" xmlns="http://www.w3.org/2000/svg" xmlns:xlink="http://www.w3.org/1999/xlink">
    <!-- Generator: Sketch 50.2 (55047) - http://www.bohemiancoding.com/sketch -->
    <title>个人中心_icon_相机小</title>
    <desc>Created with Sketch.</desc>
    <defs></defs>
    <g id="个人中心" stroke="none" stroke-width="1" fill="none" fill-rule="evenodd">
        <g id="个人中心-添加家庭成员-5" transform="translate(-175.000000, -260.000000)">
            <g id="个人中心_icon_相机小" transform="translate(175.000000, 260.000000)">
                <rect id="Rectangle" fill="#D8D8D8" opacity="0" x="0" y="0" width="25" height="25"></rect>
                <path d="M22.2335335,5.33978879 C23.2045705,5.33978879 23.9935922,6.12361501 24,7.09465203 L24,19.9633605 C23.9935922,20.9344841 23.2045705,21.7182237 22.2335335,21.7182237 L2.76655309,21.7182237 C1.79542947,21.7182237 1.00640777,20.9344841 1,19.9633605 L1,7.09465203 C1.00640777,6.12361501 1.79542947,5.33978879 2.76655309,5.33978879 L7.27060972,5.33978879 L8.8264857,3.19890066 C8.91108559,3.08122282 9.04452309,3.0081396 9.18913088,3 L16.0096832,3 C16.1565424,3.00181842 16.294396,3.07083184 16.3840182,3.18721081 L18.0570525,5.33978879 L22.2335335,5.33978879 Z M12.698944,9.1302449 C14.5101783,9.11621708 16.1497882,10.1994767 16.8471961,11.8711255 C17.5446906,13.5426877 17.1611769,15.4702144 15.877025,16.7475256 C14.5929597,18.0249233 12.6633549,18.3981326 10.9955161,17.6918058 C9.32759069,16.9855656 8.25299023,15.340154 8.2767163,13.5290929 C8.31464337,11.1065226 10.2761139,9.15535644 12.698944,9.1302449 Z M12.698944,18.9924101 C15.6887751,19.01172 18.1287503,16.6047362 18.1503115,13.6148184 C18.1716996,10.6249873 15.7664477,8.18319372 12.7767031,8.15955424 C9.78687198,8.13591476 7.34325998,10.5391751 7.31736912,13.5290929 C7.29797263,16.5225608 9.70547597,18.9666924 12.698944,18.9924101 Z M20.1861642,9.36421512 C20.4700977,9.36421512 20.7261487,9.19319692 20.8347345,8.93091128 C20.9433202,8.66862564 20.8832257,8.3666811 20.6825066,8.16596201 C20.4817875,7.96524293 20.179843,7.90514843 19.917644,8.01382076 C19.6552717,8.12240649 19.4842535,8.37837095 19.4842535,8.66230446 C19.4842535,9.04997459 19.7985807,9.36421512 20.1861642,9.36421512 Z" id="Fill-1" fill="#FFFFFF"></path>
            </g>
        </g>
    </g>
</svg>