<?xml version="1.0" encoding="UTF-8"?>
<svg width="44px" height="44px" viewBox="0 0 44 44" version="1.1" xmlns="http://www.w3.org/2000/svg" xmlns:xlink="http://www.w3.org/1999/xlink">
    <!-- Generator: Sketch 49.3 (51167) - http://www.bohemiancoding.com/sketch -->
    <title>共享设备_icon_打气筒@1x</title>
    <desc>Created with Sketch.</desc>
    <defs></defs>
    <g id="Page-1" stroke="none" stroke-width="1" fill="none" fill-rule="evenodd">
        <g id="共享设备1" transform="translate(-15.000000, -429.000000)">
            <g id="Group-3" transform="translate(0.000000, 401.000000)">
                <g id="共享设备_icon_打气筒" transform="translate(15.000000, 28.000000)">
                    <rect id="Rectangle-3" fill="#D8D8D8" opacity="0.0199999996" x="0" y="0" width="44" height="44"></rect>
                    <g id="Group-15" transform="translate(7.000000, 0.000000)">
                        <rect id="Rectangle-33" fill="#FC8282" x="1.53233831" y="0.875621891" width="25.6119403" height="2.62686567" rx="1.31343284"></rect>
                        <path d="M12.8208955,0 L15.8557214,0 C16.4080061,3.89074334e-16 16.8557214,0.44771525 16.8557214,1 L16.8557214,4.37810945 L11.8208955,4.37810945 L11.8208955,1 C11.8208955,0.44771525 12.2686108,1.01453063e-16 12.8208955,0 Z" id="Rectangle-34" fill="#EE6262"></path>
                        <rect id="Rectangle-35" fill="#FC8282" x="8.31840796" y="4.15920398" width="12.2587065" height="34.3681592"></rect>
                        <rect id="Rectangle-36" fill="#EE6262" x="7.44278607" y="36.7761194" width="14.2288557" height="3.50248756"></rect>
                        <path d="M3,40.278607 L25.8955224,40.278607 C27.5523766,40.278607 28.8955224,41.6217527 28.8955224,43.278607 L28.8955224,44 L0,44 L-4.4408921e-16,43.278607 C-6.46995335e-16,41.6217527 1.34314575,40.278607 3,40.278607 Z" id="Rectangle-37" fill="#FC8282"></path>
                        <path d="M14.1655784,36.9783504 L14.3136175,14.3712298 C15.2038473,10.90316 17.0739855,9.16912508 19.9240322,9.16912508 C22.7740788,9.16912508 24.5841463,10.90316 25.3542347,14.3712298 L25.5687578,29.5355644 L27.2490283,29.5355644 L27.2490283,14.3712298 C26.301008,9.7333126 23.8593426,7.41435401 19.9240322,7.41435401 C15.9887218,7.41435401 13.5470564,9.7333126 12.5990361,14.3712298 L12.5990361,36.9783504 L14.1655784,36.9783504 Z" id="Path-23" fill="#EE6262"></path>
                        <rect id="Rectangle-38" fill="#EE6262" x="24.7363184" y="29.1144279" width="3.06467662" height="1.75124378"></rect>
                        <rect id="Rectangle-39" fill="#EE6262" x="27.3631841" y="27.800995" width="2.84577114" height="4.37810945" rx="1.42288557"></rect>
                    </g>
                </g>
            </g>
        </g>
    </g>
</svg>