<?xml version="1.0" encoding="UTF-8"?>
<svg width="124px" height="102px" viewBox="0 0 124 102" version="1.1" xmlns="http://www.w3.org/2000/svg" xmlns:xlink="http://www.w3.org/1999/xlink">
    <!-- Generator: Sketch 50.2 (55047) - http://www.bohemiancoding.com/sketch -->
    <title>关于我们_iocn_logo</title>
    <desc>Created with Sketch.</desc>
    <defs></defs>
    <g id="关于我们" stroke="none" stroke-width="1" fill="none" fill-rule="evenodd">
        <g id="登录-微信登录-9" transform="translate(-126.000000, -85.000000)">
            <g id="关于我们_iocn_logo" transform="translate(126.000000, 85.000000)">
                <rect id="Rectangle" fill="#D8D8D8" opacity="0" x="0" y="0" width="124" height="102"></rect>
                <g id="Group-6" transform="translate(1.000000, 77.000000)" fill="#8282FC">
                    <g id="Group-3">
                        <path d="M21.7337326,6.03521028 L17.491143,8.57166863 C16.2759352,6.40692465 14.0813896,5.05997001 11.6696274,5.05997001 C7.94328121,5.05997001 4.90310946,8.25851546 4.90310946,12.2282609 C4.90310946,16.1980063 7.94328121,19.3965517 11.6696274,19.3965517 C13.8002012,19.3965517 15.7663996,18.3487185 17.0431414,16.5853598 L20.9708954,19.6140817 C18.7814168,22.6380575 15.3691736,24.4565217 11.6696274,24.4565217 C5.21397166,24.4565217 0,18.9709352 0,12.2282609 C0,5.48558656 5.21397166,0 11.6696274,0 C15.8566937,0 19.6542279,2.33082707 21.7337326,6.03521028 Z" id="Oval" fill-rule="nonzero"></path>
                        <polygon id="Rectangle-2" transform="translate(38.266611, 9.787882) rotate(60.000000) translate(-38.266611, -9.787882) " points="35.1538245 2.77688273 38.6270385 1.73076994 41.3793966 16.6705783 37.9641263 17.8449942"></polygon>
                        <path d="M45.5373446,6.03521028 L41.6240658,9.33216248 C40.3656201,6.26868183 37.8850016,5.05997001 35.4732393,5.05997001 C31.7468932,5.05997001 28.7067214,8.25851546 28.7067214,12.2282609 C28.7067214,16.1980063 31.7468932,19.3965517 35.4732393,19.3965517 C37.6038131,19.3965517 39.5700116,18.3487185 40.8467534,16.5853598 L44.7745074,19.6140817 C42.5850287,22.6380575 39.1727856,24.4565217 35.4732393,24.4565217 C29.0175836,24.4565217 23.8036119,18.9709352 23.8036119,12.2282609 C23.8036119,5.48558656 29.0175836,0 35.4732393,0 C39.6603057,0 43.4578399,2.33082707 45.5373446,6.03521028 Z" id="Oval" fill-rule="nonzero"></path>
                        <path d="M88.3283381,25 C81.6122568,25 76.1677972,19.4035594 76.1677972,12.5 C76.1677972,5.59644063 81.6122568,0 88.3283381,0 C95.0444194,0 100.488879,5.59644063 100.488879,12.5 C100.488879,19.4035594 95.0444194,25 88.3283381,25 Z M88.3283381,20.4511614 C92.1865124,20.4511614 95.6617591,16.8238283 95.6617591,12.7717391 C95.6617591,8.71964993 92.1865124,5.09231686 88.3283381,5.09231686 C84.4701637,5.09231686 80.9949171,8.71964993 80.9949171,12.7717391 C80.9949171,16.8238283 84.4701637,20.4511614 88.3283381,20.4511614 Z" id="Oval-3" fill-rule="nonzero"></path>
                        <path d="M66.7934478,22.6605171 L66.8029125,22.6605171 L66.8029125,21.9526398 L66.7934478,21.9526398 L66.7934478,22.6605171 Z M75.5457096,20.1566351 L75.5457096,24.4565217 L75.5457096,24.4565217 C69.4325383,24.4565217 64.4768338,19.5008172 64.4768338,13.3876459 L64.4768338,0 L69.1195265,0 L69.1195265,13.730452 C69.1195265,17.2795349 71.9966267,20.1566351 75.5457096,20.1566351 Z" id="L" fill-rule="nonzero"></path>
                        <path d="M59.7110393,20.1566351 L59.7110393,24.4565217 L59.7110393,24.4565217 C53.597868,24.4565217 48.6421635,19.5008172 48.6421635,13.3876459 L48.6421635,0 L53.2848562,0 L53.2848562,13.730452 C53.2848562,17.2795349 56.1619564,20.1566351 59.7110393,20.1566351 Z" id="L" fill-rule="nonzero"></path>
                        <path d="M112.453168,10.3448276 C110.28211,10.3448276 108.52212,8.99396261 108.52212,7.32758621 C108.52212,5.66120981 110.28211,4.31034483 112.453168,4.31034483 C114.624226,4.31034483 116.384217,5.66120981 116.384217,7.32758621 L122,7.32758621 C122,3.28067209 117.725738,0 112.453168,0 C107.180599,0 102.906337,3.28067209 102.906337,7.32758621 C102.906337,11.3745003 107.180599,14.6551724 112.453168,14.6551724 L112.453168,10.3448276 Z M112.453168,14.6551724 C114.624226,14.6551724 116.384217,16.0060374 116.384217,17.6724138 C116.384217,19.3387902 114.624226,20.6896552 112.453168,20.6896552 C110.28211,20.6896552 108.52212,19.3387902 108.52212,17.6724138 L102.906337,17.6724138 C102.906337,21.7193279 107.180599,25 112.453168,25 C117.725738,25 122,21.7193279 122,17.6724138 C122,13.6254997 117.725738,10.3448276 112.453168,10.3448276 L112.453168,14.6551724 Z" id="Combined-Shape" fill-rule="nonzero"></path>
                    </g>
                </g>
                <path d="M43.3585844,8.46797254 C48.2049603,3.84123577 54.7706771,1 62,1 C76.9116882,1 89,13.0883118 89,28 C89,34.7441276 86.5273447,40.9107356 82.4391494,45.6427087 L75.4305868,38.7504354 C77.665247,35.935269 79,32.3735086 79,28.5 C79,27.4683738 78.1637017,26.6320755 77.1320755,26.6320755 C76.1004492,26.6320755 75.2641509,27.4683738 75.2641509,28.5 C75.2641509,31.3524854 74.3284637,33.9864294 72.7472748,36.1116462 L72.6337449,36 L70.0743341,38.7749305 C67.9556358,40.3393682 65.3358152,41.2641509 62.5,41.2641509 C55.4505541,41.2641509 49.7358491,35.5494459 49.7358491,28.5 C49.7358491,21.4505541 55.4505541,15.7358491 62.5,15.7358491 C63.5316262,15.7358491 64.3679245,14.8995508 64.3679245,13.8679245 C64.3679245,12.8362983 63.5316262,12 62.5,12 C58.2039688,12 54.2914062,13.6418244 51.3555433,16.3322421 L43.3585844,8.46797254 Z M40.5971258,11.5382499 L48.6780975,19.4851384 C46.984522,22.0764991 46,25.1732758 46,28.5 C46,33.7870246 48.486649,38.4932611 52.3542007,41.5129632 L45.085214,49.0461718 C38.9353998,44.0972668 35,36.5082143 35,28 C35,21.8036457 37.0872982,16.0948061 40.5971258,11.5382499 Z M79.6972656,48.3918881 C74.9581808,52.5082803 68.7700765,55 62,55 C57.1368329,55 52.5739645,53.7142681 48.6327755,51.4641849 L56.1086937,43.7165228 C58.0743756,44.5431491 60.2338362,45 62.5,45 C66.3400175,45 69.8736543,43.6882283 72.6772467,41.4883487 L79.6972656,48.3918881 Z M66.4617459,22.6059791 C65.250416,21.6028806 63.6956132,21 62,21 C58.1340068,21 55,24.1340068 55,28 C55,31.8659932 58.1340068,35 62,35 C65.8659932,35 69,31.8659932 69,28 C69,27.3353125 68.907357,26.692263 68.734279,26.0830594 L83,11.984582 L80.2291264,9 L66.4617459,22.6059791 Z" id="Combined-Shape" fill="#8282FC"></path>
            </g>
        </g>
    </g>
</svg>