<?xml version="1.0" encoding="UTF-8"?>
<svg width="18px" height="18px" viewBox="0 0 18 18" version="1.1" xmlns="http://www.w3.org/2000/svg" xmlns:xlink="http://www.w3.org/1999/xlink">
    <!-- Generator: Sketch 49.3 (51167) - http://www.bohemiancoding.com/sketch -->
    <title>我_icon_设置</title>
    <desc>Created with Sketch.</desc>
    <defs></defs>
    <g id="Page-1" stroke="none" stroke-width="1" fill="none" fill-rule="evenodd">
        <g id="我的4" transform="translate(-342.000000, -31.000000)" fill="#FFFFFF">
            <g id="我_icon_设置" transform="translate(342.000000, 31.000000)">
                <rect id="Rectangle-5" opacity="0.00999999978" x="0" y="0" width="18" height="18"></rect>
                <path d="M11.698043,18 L11.6979403,18 C11.3705611,17.9998972 11.0522837,17.8644989 10.8467215,17.6376569 C10.5666802,17.3305705 9.6793416,16.5320101 8.95298057,16.5320101 C8.23163277,16.5320101 7.33050787,17.3352146 7.07173162,17.6164913 C6.86666249,17.8395112 6.5506452,17.9726491 6.22636844,17.9726491 C6.07186288,17.9726491 5.92617154,17.9430172 5.79309542,17.8845344 L5.76977575,17.8743009 L3.56201052,16.6394616 L3.54006745,16.6241731 C3.138127,16.3427936 2.98516238,15.7923642 3.18435539,15.3438996 C3.18589634,15.3404474 3.38800686,14.8740023 3.38800686,14.4487172 C3.38800686,13.1581076 2.3380882,12.1080257 1.04769971,12.1080257 L0.969399083,12.1080257 C0.964632424,12.1081284 0.959865764,12.1082517 0.955222383,12.1082517 C0.585539085,12.1082517 0.284561432,11.7798147 0.188365279,11.2715521 C0.180701643,11.2308237 0,10.2667811 0,9.5072025 C0,8.74758278 0.180701643,7.78345796 0.188365279,7.7427501 C0.285691442,7.22803509 0.593243801,6.89737879 0.969399083,6.90625603 L1.04769971,6.90625603 C2.3380882,6.90625603 3.38800686,5.85617414 3.38800686,4.56558504 C3.38800686,4.14040265 3.18599906,3.67406036 3.1838623,3.66939569 C2.98495695,3.22134213 3.13892829,2.67101544 3.54259461,2.39054016 L3.56546225,2.37467623 L5.89545538,1.09460825 L5.91972015,1.08431314 C6.05098823,1.02831672 6.19464553,1 6.34684995,1 C6.67044869,1 6.98704126,1.13021993 7.19402116,1.34836967 C7.46983,1.63714681 8.34149201,2.38823864 9.04703999,2.38823864 C9.74591052,2.38823864 10.6123127,1.65204494 10.887197,1.36830234 C11.0929648,1.15461178 11.4073794,1.02661115 11.7276908,1.02661115 C11.8829977,1.02661115 12.0293876,1.05595533 12.1627103,1.11394502 L12.1862765,1.12428124 L14.4367567,2.37469675 L14.4589052,2.39029354 C14.8615648,2.67126202 15.0149403,3.22171198 14.815624,3.67044367 C14.8141036,3.67387537 14.6119726,4.14036153 14.6119726,4.5656261 C14.6119726,5.8562152 15.6619118,6.9062971 16.9522797,6.9062971 L17.0306009,6.9062971 C17.406222,6.89791304 17.7141853,7.22795288 17.8116142,7.74279116 C17.8193189,7.78349903 18,8.74754165 18,9.50714081 C18,10.26674 17.8193189,11.2308648 17.8115114,11.2715932 C17.7142058,11.7863082 17.406222,12.1157727 17.0304982,12.1080667 L16.9522797,12.1080667 C15.6618912,12.1080667 14.6119726,13.1581692 14.6119726,14.4487583 C14.6119726,14.8739201 14.8140009,15.3401802 14.816035,15.3448243 C15.0148376,15.7925697 14.8612566,16.3429991 14.4583094,16.6237826 L14.4357294,16.6395849 L12.1473213,17.9045903 L12.1234469,17.9148649 C11.9925487,17.9713545 11.849405,18 11.698043,18 Z M11.6285361,16.921663 C11.6387679,16.9283415 11.6676966,16.9396846 11.698043,16.9396846 C11.6992758,16.9396846 11.700488,16.9396846 11.7014947,16.9395819 L13.8395681,15.7577389 C13.7879772,15.6378346 13.5519453,15.0557801 13.5519453,14.4488405 C13.5519453,12.6333851 14.9816559,11.1455448 16.7740436,11.0525188 C16.7998493,10.910031 16.9398494,10.1085527 16.9398494,9.50722302 C16.9398494,8.90601668 16.7998493,8.10480548 16.7740436,7.96192727 C14.9816559,7.86883964 13.5519453,6.3810404 13.5519453,4.56560556 C13.5519453,3.95767962 13.7886758,3.37496752 13.8398763,3.2559674 L11.7364845,2.08719363 C11.7340806,2.08709088 11.731122,2.08690595 11.7276908,2.08690595 C11.6918792,2.08690595 11.6583893,2.09995465 11.6472534,2.10745509 C11.6119555,2.14376543 11.307033,2.45296842 10.8690755,2.76110287 C10.2207891,3.21723226 9.60780064,3.448554 9.04703999,3.448554 C8.48079356,3.448554 7.86289462,3.21269089 7.21039628,2.747561 C6.7697678,2.43348785 6.46346875,2.1182845 6.42808863,2.08135769 C6.41689108,2.07377506 6.38296973,2.06029482 6.34682939,2.06029482 C6.34401459,2.06029482 6.34146689,2.06041811 6.33935067,2.06052085 L4.1607196,3.2573031 C4.2129474,3.37872799 4.44805473,3.95971398 4.44805473,4.56560556 C4.44805473,6.38104038 3.01834415,7.86883964 1.22595643,7.96192727 C1.20017127,8.10449723 1.0601506,8.90591392 1.0601506,9.50722302 C1.0601506,10.1084705 1.20015071,10.9095378 1.22605917,11.052416 C3.01834417,11.1455448 4.44805475,12.6333029 4.44805475,14.4487377 C4.44805475,15.0578761 4.21039972,15.6415951 4.15983615,15.7590746 L6.2218073,16.9122104 C6.22314279,16.9123543 6.22468373,16.9123543 6.22638904,16.9123543 C6.25652995,16.9123543 6.28506829,16.9013399 6.29525906,16.8947642 C6.33384436,16.8533782 6.64178707,16.527366 7.08541527,16.2021553 C7.74662508,15.717442 8.37500247,15.4717153 8.95300117,15.4717153 C9.5365062,15.4717153 10.1696091,15.7221478 10.8347021,16.2160876 C11.2808575,16.5474836 11.5900946,16.8795784 11.6285361,16.921663 Z M8.96052097,12.6125688 C7.2420165,12.6125688 5.84390559,11.2141995 5.84390559,9.49536616 C5.84390559,7.77657397 7.2420165,6.37824569 8.96052097,6.37824569 C10.6791076,6.37824569 12.0773418,7.77659449 12.0773418,9.49536616 C12.0773418,11.2141995 10.6790871,12.6125688 8.96052097,12.6125688 Z M8.96052097,7.43851996 C7.82652827,7.43851996 6.90401505,8.3611766 6.90401505,9.49536616 C6.90401505,10.6295557 7.82652827,11.5523767 8.96052097,11.5523767 C10.0945342,11.5523767 11.0172118,10.6295763 11.0172118,9.49536616 C11.0172118,8.36117662 10.094637,7.43851996 8.96052097,7.43851996 Z" id="Shape" fill-rule="nonzero"></path>
            </g>
        </g>
    </g>
</svg>