<?xml version="1.0" encoding="UTF-8"?>
<svg width="20px" height="20px" viewBox="0 0 20 20" version="1.1" xmlns="http://www.w3.org/2000/svg" xmlns:xlink="http://www.w3.org/1999/xlink">
    <!-- Generator: Sketch 49.3 (51167) - http://www.bohemiancoding.com/sketch -->
    <title>我_icon_我的车辆</title>
    <desc>Created with Sketch.</desc>
    <defs></defs>
    <g id="Page-1" stroke="none" stroke-width="1" fill="none" fill-rule="evenodd">
        <g id="我的4" transform="translate(-15.000000, -428.000000)">
            <g id="我的车辆" transform="translate(0.000000, 410.000000)">
                <g id="我_icon_我的车辆" transform="translate(15.000000, 18.000000)">
                    <rect id="Rectangle-2" fill="#FFFFFF" opacity="0.00999999978" x="0" y="0" width="20" height="20"></rect>
                    <g id="本店车辆" transform="translate(2.000000, 2.000000)" fill="#8282FC" fill-rule="nonzero">
                        <path d="M15.5826335,4.69818465 L14.0840953,4.69818465 C14.0129413,4.69818465 13.9468581,4.72591423 13.8880973,4.76630952 L13.2122154,2.18061706 C12.9961977,0.709578824 12.1813139,0 11.180225,0 L4.83355557,0 C3.68435757,0 2.98551491,0.95350378 2.80071328,2.17872424 L2.12395919,4.77316426 C2.06144589,4.72815082 1.9924622,4.69818465 1.91615622,4.69818465 L0.416843199,4.69818465 C0.186870539,4.69818465 0,4.93668382 0,5.22927117 L0,5.68896492 C0,5.98241378 0.186870539,6.21957514 0.416843199,6.21957514 L0.985121905,6.3430763 C0.805350542,6.78785946 0.703142722,7.29666293 0.703142722,7.88942548 L0.493007174,10.9402458 C0.493007174,11.0297508 0.4983417,11.1201256 0.506982401,11.2108731 C0.498909633,11.2654211 0.493007174,11.3236138 0.493007174,11.3825935 L0.493007174,15.0546266 C0.493007174,15.5762076 0.826485797,16 1.23785247,16 L2.37528613,16 C2.78647027,16 3.11952294,15.5762076 3.11952294,15.0546266 L3.11952294,13.8748214 L12.8938641,13.8748214 L12.8938641,15.0546266 C12.8938641,15.5762076 13.2267342,16 13.6386891,16 L14.7753317,16 C15.1871243,16 15.5203595,15.5762076 15.5203595,15.0546266 L15.5203595,11.3825935 C15.5203595,11.3236138 15.5141326,11.2654211 15.5063843,11.2110802 C15.5145585,11.1186759 15.5203595,11.0297508 15.5203595,10.9402458 L15.3105891,7.88948759 C15.3105891,7.29478251 15.207428,6.78605774 15.0274132,6.33995333 L15.5826294,6.21957924 C15.8132917,6.21957924 16,5.98241788 16,5.68939149 L16,5.22838478 C16.0000041,4.93667967 15.8132958,4.69818465 15.5826335,4.69818465 Z M3.3020772,4.15622581 L3.79861369,2.47853081 L3.80559117,2.43860354 C3.85431179,2.09928389 3.96485606,2.03796404 4.1275894,1.7762002 L11.8954525,1.7762002 C12.0594232,2.04561814 12.1615093,2.11373888 12.2070657,2.43360436 L12.7111679,4.15622995 L12.8955638,5.09072272 C12.8541858,5.77435296 12.206802,6.31497812 11.668928,6.31497812 L4.34432108,6.31497812 C3.80577776,6.31497812 3.15879558,5.77435296 3.11747839,5.09072272 L3.3020772,4.15622581 Z M3.45941516,11.6376062 C2.793107,11.6376062 2.25269356,11.0860797 2.25269356,10.4054896 C2.25269356,9.72506514 2.79310294,9.17353868 3.45941516,9.17353868 C4.12593021,9.17353868 4.66601506,9.72506516 4.66601506,10.4054896 C4.66601506,11.0860756 4.12582475,11.6376062 3.45941516,11.6376062 Z M10.4048694,11.0773363 C10.4048694,11.3132551 10.2546915,11.504028 10.0691597,11.504028 L5.84492413,11.504028 C5.6589055,11.504028 5.50878839,11.3132551 5.50878839,11.0773363 L5.50878839,9.87947267 C5.50878839,9.64376096 5.65884465,9.45336089 5.84492413,9.45336089 L10.0691556,9.45336092 C10.2546874,9.45336092 10.4048654,9.64376098 10.4048654,9.87947269 L10.4048654,11.0773363 L10.4048694,11.0773363 Z M12.4531677,11.6376062 C11.7868189,11.6376062 11.2464663,11.0860797 11.2464663,10.4054896 C11.2464663,9.72506514 11.7868189,9.17353868 12.4531677,9.17353868 C13.1196584,9.17353868 13.6598284,9.72506516 13.6598284,10.4054896 C13.6598284,11.0860756 13.1196624,11.6376062 12.4531677,11.6376062 Z" id="Shape"></path>
                    </g>
                </g>
            </g>
        </g>
    </g>
</svg>