<?xml version="1.0" encoding="UTF-8"?>
<svg width="20px" height="20px" viewBox="0 0 20 20" version="1.1" xmlns="http://www.w3.org/2000/svg" xmlns:xlink="http://www.w3.org/1999/xlink">
    <!-- Generator: Sketch 49.3 (51167) - http://www.bohemiancoding.com/sketch -->
    <title>我_icon_关于我们</title>
    <desc>Created with Sketch.</desc>
    <defs></defs>
    <g id="Page-1" stroke="none" stroke-width="1" fill="none" fill-rule="evenodd">
        <g id="我的4" transform="translate(-15.000000, -790.000000)">
            <g id="关于我们" transform="translate(0.000000, 772.000000)">
                <g id="我_icon_关于我们" transform="translate(15.000000, 18.000000)">
                    <rect id="Rectangle-2" fill="#FFFFFF" opacity="0.00999999978" x="0" y="0" width="20" height="20"></rect>
                    <g id="关于我们" fill="#FFA93A" fill-rule="nonzero">
                        <path d="M10,20 C4.4771137,20 0,15.5228278 0,10.0000229 C0,4.4772181 4.4771137,0 10,0 C15.5228405,0 20,4.47721807 20,10.0000229 C20,15.5228278 15.5228405,20 10,20 Z M10,4.3902769 C9.32647951,4.3902769 8.78048221,4.93627296 8.78048221,5.60974604 C8.78048221,6.28331082 9.32647951,6.82930688 10,6.82930688 C10.6735205,6.82930688 11.2195178,6.28331082 11.2195178,5.60974604 C11.2195178,4.93627296 10.6735205,4.3902769 10,4.3902769 Z M11.2195178,9.26831393 C11.2195178,8.72949419 10.7826787,8.29270194 10.2439036,8.29270194 L9.75609645,8.29270194 C9.21727548,8.29270194 8.78048223,8.72947127 8.78048223,9.26831393 L8.78048223,15.121963 C8.78048223,15.6607368 9.21725256,16.0975749 9.75609645,16.0975749 L10.2439036,16.0975749 C10.7826787,16.0975749 11.2195178,15.6607368 11.2195178,15.121963 L11.2195178,9.26831393 Z" id="Shape"></path>
                    </g>
                </g>
            </g>
        </g>
    </g>
</svg>