<?xml version="1.0" encoding="UTF-8"?>
<svg width="20px" height="20px" viewBox="0 0 20 20" version="1.1" xmlns="http://www.w3.org/2000/svg" xmlns:xlink="http://www.w3.org/1999/xlink">
    <!-- Generator: Sketch 49.3 (51167) - http://www.bohemiancoding.com/sketch -->
    <title>我_icon_账号管理</title>
    <desc>Created with Sketch.</desc>
    <defs></defs>
    <g id="Page-1" stroke="none" stroke-width="1" fill="none" fill-rule="evenodd">
        <g id="我的4" transform="translate(-15.000000, -609.000000)" fill="#DDAC6E">
            <g id="帐号管理" transform="translate(0.000000, 591.000000)">
                <g id="我_icon_账号管理" transform="translate(15.000000, 18.000000)">
                    <rect id="Rectangle-2" opacity="0.00999999978" x="0" y="0" width="20" height="20"></rect>
                    <path d="M18.7554149,8.62518173 L11.3750285,2.47665879 L11.3560913,2.46075156 C10.5570993,1.84641615 9.44479447,1.84641615 8.6458024,2.46075156 L8.6357657,2.4685158 L1.24458514,8.62518173 C1.05944919,8.77576804 0.969560119,9.01425526 1.00924161,9.2495783 C1.04892309,9.48490134 1.21204791,9.68072395 1.4363277,9.76227228 C1.66060749,9.84382061 1.91141119,9.79850278 2.09297071,9.64362317 L3.25097914,8.67896332 L3.25097914,15.7434776 C3.25097914,17.2584518 4.48189571,18.4893684 5.99686995,18.4893684 L14.2345424,18.4893684 C15.7495166,18.4893684 16.9804332,17.2584518 16.9804332,15.7434776 L16.9804332,8.87174379 L17.9070293,9.64362317 C18.0885888,9.79850278 18.3393925,9.84382061 18.5636723,9.76227228 C18.7879521,9.68072395 18.9510769,9.48490134 18.9907584,9.2495783 C19.0304399,9.01425526 18.9405508,8.77576804 18.7554149,8.62518173 Z M11.4169615,11.7596897 C11.0704262,11.7596897 10.7421093,11.6810381 10.4542016,11.5415299 L9.10848193,12.804613 L9.86421484,13.5128262 C9.99349937,13.6340662 9.99349937,13.828242 9.86421484,13.9495319 L8.73796262,15.0051521 C8.60867809,15.1264419 8.40163856,15.1264419 8.27235404,15.0051521 L7.51662113,14.2969638 L7.33579465,14.4653375 C7.08655272,14.7003708 6.67914833,14.7003708 6.42812567,14.4653375 C6.1775513,14.2303166 6.1775513,13.847768 6.42812567,13.6131829 L9.54698087,10.6907077 C9.39815798,10.4205825 9.31418903,10.1131364 9.31418903,9.78838094 C9.31418903,8.69944962 10.2551692,7.81709708 11.4169616,7.81709708 C12.5783306,7.81709708 13.5197465,8.69943717 13.5197465,9.78838094 C13.5197465,10.8773372 12.5783181,11.7596897 11.4169615,11.7596897 Z" id="Shape" fill-rule="nonzero"></path>
                </g>
            </g>
        </g>
    </g>
</svg>