<?xml version="1.0" encoding="UTF-8"?>
<svg width="20px" height="20px" viewBox="0 0 20 20" version="1.1" xmlns="http://www.w3.org/2000/svg" xmlns:xlink="http://www.w3.org/1999/xlink">
    <!-- Generator: Sketch 49.3 (51167) - http://www.bohemiancoding.com/sketch -->
    <title>我_icon_消息通知设置</title>
    <desc>Created with Sketch.</desc>
    <defs></defs>
    <g id="Page-1" stroke="none" stroke-width="1" fill="none" fill-rule="evenodd">
        <g id="我的4" transform="translate(-15.000000, -552.000000)">
            <g id="消息通知设置" transform="translate(0.000000, 534.000000)">
                <g id="我_icon_消息通知设置" transform="translate(15.000000, 18.000000)">
                    <rect id="Rectangle-2" fill="#FFFFFF" opacity="0.00999999978" x="0" y="0" width="20" height="20"></rect>
                    <g id="消息" transform="translate(2.000000, 1.000000)" fill="#FFA93A" fill-rule="nonzero">
                        <path d="M10.0996678,15.9215686 C10.0996678,17.3490196 9.35548173,18.6666667 7.7076412,18.6666667 C6.11295681,18.6666667 5.31561463,17.3490196 5.3156146,15.9215686 L10.0996678,15.9215686 Z M14.3521595,8.29019607 L14.3521595,10.3215686 C14.3521595,10.6509804 14.4053156,10.9803922 14.4584717,11.3098039 C14.5116279,11.6941177 14.5647841,12.0235294 14.6710963,12.1882353 L14.6710963,12.2431373 C15.4152824,12.3529412 16,12.9568628 16,13.7254902 C16,14.5490196 15.3089701,15.3176471 14.5116279,15.3176471 L1.48837209,15.3176471 C0.691029905,15.3176471 0,14.5490196 0,13.7254902 C0,12.9568628 0.584717601,12.3529412 1.32890364,12.2431373 L1.32890364,12.1882353 C1.38205978,11.9686274 1.48837209,11.6941176 1.54152822,11.3098039 C1.59468436,10.9803922 1.59468436,10.6509804 1.64784053,10.3215686 L1.64784053,8.29019607 C1.64784053,5.54509802 3.34883719,3.07450979 5.68770762,2.03137255 C5.79401993,0.878431381 6.80398669,0 7.97342192,0 C9.14285715,0 10.1528239,0.878431381 10.2591362,2.03137255 C12.7043189,3.01960784 14.3521595,5.49019607 14.3521595,8.29019607 Z" id="Shape"></path>
                    </g>
                </g>
            </g>
        </g>
    </g>
</svg>