<?xml version="1.0" encoding="UTF-8"?>
<svg width="20px" height="20px" viewBox="0 0 20 20" version="1.1" xmlns="http://www.w3.org/2000/svg" xmlns:xlink="http://www.w3.org/1999/xlink">
    <!-- Generator: Sketch 49.3 (51167) - http://www.bohemiancoding.com/sketch -->
    <title>我_icon_设备共享</title>
    <desc>Created with Sketch.</desc>
    <defs></defs>
    <g id="Page-1" stroke="none" stroke-width="1" fill="none" fill-rule="evenodd">
        <g id="我的4" transform="translate(-15.000000, -733.000000)">
            <g id="设备共享" transform="translate(0.000000, 715.000000)">
                <g id="我_icon_设备共享" transform="translate(15.000000, 18.000000)">
                    <rect id="Rectangle-2" fill="#FFFFFF" opacity="0.01" x="0" y="0" width="20" height="20"></rect>
                    <g id="工具箱" transform="translate(1.000000, 1.000000)" fill="#8282FC" fill-rule="nonzero">
                        <path d="M13.4117495,3.45456722 L13.4117495,1.15152242 C13.4292269,0.603330406 12.7972524,2.59925623e-08 12.2940994,2.59925623e-08 L6.14706261,0 C5.63190525,0 5.02941252,0.580535604 5.02941252,1.1515224 L5.02941252,3.4545672 L1.67648804,3.45456722 C0.841522648,3.45456722 2.58082292e-05,4.37244972 2.58082292e-05,5.18181093 L2.58082292e-05,8.06060364 L19,8.06060364 L19,5.18181093 C19,4.32462588 18.1533142,3.45456722 17.3235636,3.45456722 L13.4117495,3.45456722 Z M11.7352615,3.45456722 L6.70587475,3.45456722 L6.70587475,2.30304482 C6.70587475,1.95359569 6.92691096,1.72729692 7.26468689,1.72729692 L11.1764235,1.72729692 C11.5139671,1.72729692 11.7352356,1.95362228 11.7352356,2.30304482 L11.7352615,3.45456722 Z M9.47817261,11.4943443 C10.5789133,11.4943443 10.6176372,10.100511 10.6176372,9.21212603 L7.82352484,9.21212603 C7.84234467,9.92703654 7.84536514,11.5151443 8.94117493,11.5151443 C8.94117496,11.5151443 9.24786847,11.4943443 9.47817261,11.4943443 Z M11.7352615,9.21212606 C11.7352615,9.21212606 12.620981,12.6666667 9.22029703,12.6666667 C5.70909494,12.6666667 6.70587475,9.21212606 6.70587475,9.21212606 L0,9.21212606 L0,17.2727297 C0,18.1571781 0.753645148,19 1.67646223,19 L17.3235119,19 C18.1628402,19 18.9999484,18.2549802 18.9999484,17.2727297 L18.9999484,9.21212606 L11.7352615,9.21212606 Z" id="Shape"></path>
                    </g>
                </g>
            </g>
        </g>
    </g>
</svg>