<?xml version="1.0" encoding="UTF-8"?>
<svg width="20px" height="20px" viewBox="0 0 20 20" version="1.1" xmlns="http://www.w3.org/2000/svg" xmlns:xlink="http://www.w3.org/1999/xlink">
    <!-- Generator: Sketch 49.3 (51167) - http://www.bohemiancoding.com/sketch -->
    <title>我_icon_室内保修</title>
    <desc>Created with Sketch.</desc>
    <defs></defs>
    <g id="Page-1" stroke="none" stroke-width="1" fill="none" fill-rule="evenodd">
        <g id="我的4" transform="translate(-15.000000, -676.000000)">
            <g id="室内保修" transform="translate(0.000000, 658.000000)">
                <g id="我_icon_室内保修" transform="translate(15.000000, 18.000000)">
                    <rect id="Rectangle-2" fill="#FFFFFF" opacity="0.00999999978" x="0" y="0" width="20" height="20"></rect>
                    <g id="修理维护" fill="#8282FC" fill-rule="nonzero">
                        <path d="M10,20 C4.47733334,20 0,15.5226667 0,10 C0,4.47733334 4.47733334,0 10,0 C15.5226667,0 20,4.47733334 20,10 C20,15.5226667 15.5226667,20 10,20 Z M15.6537778,13.8408889 L12.968,11.1497778 C12.968,11.1497778 12.6408889,10.8764444 12.8622222,10.5297778 C13.0884847,9.99237023 13.2048462,9.41509639 13.2044445,8.832 C13.2044445,6.40888889 11.2431111,4.44444445 8.82444445,4.44444445 C8.41806317,4.44474368 8.01376536,4.50250051 7.62355555,4.616 C7.29688889,4.72888889 7.52888889,4.96711111 7.52888889,4.96711111 L9.54666666,6.988 C10.1948289,7.63768802 10.1948289,8.68942309 9.54666666,9.33911111 L9.35111111,9.53466666 C9.04018596,9.84634758 8.61802709,10.0215118 8.17777778,10.0215118 C7.73752848,10.0215118 7.31536961,9.84634758 7.00444445,9.53466666 L4.95511111,7.48133334 C4.95511111,7.48133334 4.74488889,7.30533334 4.63288889,7.57022223 C4.50825638,7.97938677 4.44475604,8.40471932 4.44444445,8.83244445 C4.44444445,11.2555556 6.40533334,13.2204445 8.82444445,13.2204445 C9.45841586,13.2210533 10.0848687,13.083173 10.66,12.8164445 C10.912,12.6857778 11.1,12.9008889 11.1,12.9008889 L13.8444445,15.6533333 C14.1085849,15.9186059 14.4831028,16.0425102 14.8533333,15.9871111 C14.8533333,15.9871111 15.7777778,15.904 15.984,14.8715555 C16.0469511,14.4946883 15.9239517,14.1106256 15.6537778,13.8404445 L15.6537778,13.8408889 Z" id="Shape"></path>
                    </g>
                </g>
            </g>
        </g>
    </g>
</svg>