<?xml version="1.0" encoding="UTF-8"?>
<svg width="20px" height="20px" viewBox="0 0 20 20" version="1.1" xmlns="http://www.w3.org/2000/svg" xmlns:xlink="http://www.w3.org/1999/xlink">
    <!-- Generator: Sketch 49.3 (51167) - http://www.bohemiancoding.com/sketch -->
    <title>我_icon_车辆通行记录</title>
    <desc>Created with Sketch.</desc>
    <defs></defs>
    <g id="Page-1" stroke="none" stroke-width="1" fill="none" fill-rule="evenodd">
        <g id="我的4" transform="translate(-15.000000, -485.000000)">
            <g id="车辆通行记录" transform="translate(0.000000, 467.000000)">
                <g id="我_icon_车辆通行记录" transform="translate(15.000000, 18.000000)">
                    <rect id="Rectangle-2" fill="#FFFFFF" opacity="0.00999999978" x="0" y="0" width="20" height="20"></rect>
                    <path d="M13.7333333,1 L18,5.41179138 L13.7333333,5.41179138 L13.7333333,1 Z M12.6639771,5.92238587 L17.857455,5.92238587 L18,6.05146508 L18,16.8519194 C18,18.4033522 16.735922,19.6742859 15.1894436,19.6742859 L4.8105564,19.6742859 C3.264078,19.6742859 2,18.4058345 2,16.8519194 L2,3.82236648 C2,2.27093372 3.264078,1 4.8105564,1 L12.4219197,1 L12.6639771,1.21844173 L12.6639771,5.92238587 Z M13.6417481,9.83663126 C13.5964807,9.83663126 13.5553119,9.85026286 13.5182822,9.87140532 L13.0929758,8.5414947 C12.9566989,7.78536641 12.4436035,7.42070564 11.8129884,7.42070564 L7.81521561,7.42070564 C7.09128926,7.42070564 6.65182924,7.91037459 6.53520793,8.54101749 L6.10854879,9.87517112 C6.06968175,9.85167373 6.02577714,9.83663125 5.97776373,9.83663125 L5.03341584,9.83663126 C4.88844683,9.83663126 4.77046265,9.95835085 4.77046265,10.109201 L4.77046265,10.3460422 C4.77046265,10.4964358 4.88844683,10.6186119 5.03341584,10.6186119 L5.39103298,10.6820496 C5.27807628,10.9109131 5.21358728,11.1726626 5.21358728,11.4771846 L5.08143935,13.0462914 C5.08143935,13.0918753 5.08463957,13.137926 5.09012134,13.1849208 C5.08509387,13.2131073 5.08143935,13.2431922 5.08143935,13.2732668 L5.08143935,15.1609836 C5.08143935,15.4297979 5.29179584,15.6473743 5.55064022,15.6473743 L6.26677298,15.6473743 C6.52560728,15.6473743 6.73551956,15.4297979 6.73551956,15.1609836 L6.73551956,14.5543049 L12.8917657,14.5543049 L12.8917657,15.1609836 C12.8917657,15.4297979 13.1021222,15.6473743 13.3609666,15.6473743 L14.0770994,15.6473743 C14.3359337,15.6473743 14.5463002,15.4297979 14.5463002,15.1609836 L14.5463002,13.2732668 C14.5463002,13.2427254 14.5426356,13.2131072 14.5376183,13.1849208 C14.5426356,13.1379156 14.5463002,13.0918753 14.5463002,13.0462914 L14.4136778,11.4771846 C14.4136778,11.1717186 14.3491989,10.9099691 14.235798,10.6801719 L14.5856418,10.6186119 C14.7306007,10.6186119 14.8481306,10.4964358 14.8481306,10.3460422 L14.8481306,10.1092009 C14.8485748,9.95835084 14.7305906,9.83663126 14.5856317,9.83663126 L13.6417481,9.83663126 Z M7.32103808,8.8780333 L7.32561127,8.85782451 C7.3567049,8.68348738 7.42622138,8.65246876 7.52864864,8.5175948 L12.4209084,8.5175948 C12.5247288,8.6562242 12.5891977,8.69147546 12.6175554,8.85595717 L12.9349225,9.74083869 L13.0510794,10.2215755 C13.0250132,10.5735695 12.6175554,10.8512847 12.2782311,10.8512847 L7.66538994,10.8512847 C7.32606555,10.8512847 6.91860775,10.5735695 6.89207721,10.2215755 L7.00868842,9.74083868 L7.32103808,8.8780333 Z M6.36167357,13.0935704 C6.36167357,12.6861371 6.6794949,12.3567069 7.07186017,12.3567069 C7.46422545,12.3567069 7.78205688,12.6861371 7.78205688,13.0935704 C7.78206697,13.5005368 7.46423555,13.8304339 7.07186017,13.8304339 C6.67949489,13.8304339 6.36167357,13.5005368 6.36167357,13.0935704 Z M10.6870391,13.4103027 L8.69456329,13.4103027 C8.57795208,13.4103027 8.48328813,13.3125577 8.48328813,13.191305 L8.48328813,12.5752274 C8.48328813,12.4544518 8.57795208,12.3567069 8.69456329,12.3567069 L10.687029,12.3567069 C10.8041046,12.3567069 10.8987585,12.4544518 10.8987585,12.5752274 L10.8987585,13.191305 C10.8987686,13.3125474 10.8041046,13.4103027 10.6870391,13.4103027 Z M11.66571,13.0935704 C11.66571,12.6861371 11.9839856,12.3567069 12.3763509,12.3567069 C12.7687161,12.3567069 13.0865476,12.6861371 13.0865476,13.0935704 C13.0865577,13.5005368 12.7687262,13.8304339 12.3763509,13.8304339 C11.9839856,13.8304339 11.66571,13.5005368 11.66571,13.0935704 Z" id="Combined-Shape" fill="#8282FC" fill-rule="nonzero"></path>
                </g>
            </g>
        </g>
    </g>
</svg>