<?xml version="1.0" encoding="UTF-8"?>
<svg width="30px" height="30px" viewBox="0 0 30 30" version="1.1" xmlns="http://www.w3.org/2000/svg" xmlns:xlink="http://www.w3.org/1999/xlink">
    <!-- Generator: Sketch 49.3 (51167) - http://www.bohemiancoding.com/sketch -->
    <title>消息中心_icon_访客门禁申请失效</title>
    <desc>Created with Sketch.</desc>
    <defs></defs>
    <g id="Page-1" stroke="none" stroke-width="1" fill="none" fill-rule="evenodd">
        <g id="消息主页" transform="translate(-15.000000, -363.000000)">
            <g id="消息中心_icon_访客门禁申请失效" transform="translate(15.000000, 363.000000)">
                <rect id="Rectangle-7" fill="#FFFFFF" opacity="0.00999999978" x="0" y="0" width="30" height="30"></rect>
                <g id="Group-5" transform="translate(1.000000, 0.000000)">
                    <rect id="Rectangle-3" stroke="#B3BFD0" stroke-width="2" x="1" y="1" width="26" height="28" rx="3"></rect>
                    <path d="M18.8661258,10.9996294 C18.8661258,8.21424691 16.6239404,5.96420531 13.8579171,6.00043138 C11.3458759,6.03665745 9.1870284,8.09751845 9.01241574,10.6373686 C8.84177155,13.1248923 10.4490017,15.24613 12.6713447,15.8297723 L12.6753132,15.8297723 L12.6753132,22.8777559 C12.6753132,23.0387607 12.7348402,23.1917152 12.8419889,23.3124688 L14.2547641,24.8822653 C14.3936605,25.0392449 14.6357372,25.0392449 14.7746336,24.8822653 L16.8104585,22.6281985 C16.9533234,22.4712189 16.9453865,22.2297118 16.7985531,22.0807823 L15.7588141,21.0262011 C15.5961068,20.8611712 15.5961068,20.5874631 15.7588141,20.4224333 L16.8779225,19.2873497 C17.0961883,19.0659681 17.0961883,18.7117576 16.8779225,18.4944012 L15.5326113,17.1298858 C15.4016518,16.9970569 15.3302193,16.8199516 15.3302193,16.6347961 L15.3302193,15.8056216 C17.3739812,15.1978286 18.8661258,13.2778468 18.8661258,10.9996294 Z M14.0927889,8 C14.6995108,8 15.1924724,8.50064947 15.1924724,9.11764706 C15.1924724,9.73817035 14.6995108,10.2352941 14.0927889,10.2352941 C13.4929616,10.2352941 13,9.73464465 13,9.11764706 C13,8.49712377 13.4929616,8 14.0927889,8 Z" id="Shape" fill="#B3BFD0" fill-rule="nonzero"></path>
                </g>
            </g>
        </g>
    </g>
</svg>