<?xml version="1.0" encoding="UTF-8"?>
<svg width="30px" height="30px" viewBox="0 0 30 30" version="1.1" xmlns="http://www.w3.org/2000/svg" xmlns:xlink="http://www.w3.org/1999/xlink">
    <!-- Generator: Sketch 49.3 (51167) - http://www.bohemiancoding.com/sketch -->
    <title>消息中心_icon_用户认证请求</title>
    <desc>Created with Sketch.</desc>
    <defs></defs>
    <g id="Page-1" stroke="none" stroke-width="1" fill="none" fill-rule="evenodd">
        <g id="消息主页" transform="translate(-15.000000, -282.000000)">
            <g id="消息中心_icon_用户认证请求" transform="translate(15.000000, 282.000000)">
                <rect id="Rectangle-7" fill="#FFFFFF" opacity="0.00999999978" x="0" y="0" width="30" height="30"></rect>
                <g id="Group-7" transform="translate(1.000000, 0.000000)" fill="#333537" fill-rule="nonzero">
                    <g id="Group-4">
                        <path d="M27.1807149,0 C27.6331936,0 28,0.34683503 28,0.774677722 C28,1.20252041 27.6331936,1.54935544 27.1807149,1.54935544 L19.624522,1.54935544 C19.1720434,1.54935544 18.8052369,1.89619047 18.8052369,2.32403317 L18.8052369,10.7637838 C18.8052369,11.1916265 18.4384305,11.5384615 17.9859518,11.5384615 C17.5334731,11.5384615 17.1666667,11.1916265 17.1666667,10.7637838 L17.1666667,2.32403317 C17.1666667,1.04050509 18.267086,0 19.624522,0 L27.1807149,0 Z" id="Path-22" transform="translate(22.583333, 5.769231) scale(-1, 1) translate(-22.583333, -5.769231) "></path>
                        <path d="M27.1807149,18.4615385 C27.6331936,18.4615385 28,18.8083735 28,19.2362162 C28,19.6640589 27.6331936,20.0108939 27.1807149,20.0108939 L19.624522,20.0108939 C19.1720434,20.0108939 18.8052369,20.3577289 18.8052369,20.7855716 L18.8052369,29.2253223 C18.8052369,29.653165 18.4384305,30 17.9859518,30 C17.5334731,30 17.1666667,29.653165 17.1666667,29.2253223 L17.1666667,20.7855716 C17.1666667,19.5020436 18.267086,18.4615385 19.624522,18.4615385 L27.1807149,18.4615385 Z" id="Path-22" transform="translate(22.583333, 24.230769) scale(-1, -1) translate(-22.583333, -24.230769) "></path>
                        <path d="M10.0140482,0 C10.4665269,0 10.8333333,0.34683503 10.8333333,0.774677722 C10.8333333,1.20252041 10.4665269,1.54935544 10.0140482,1.54935544 L2.45785536,1.54935544 C2.00537668,1.54935544 1.63857024,1.89619047 1.63857024,2.32403317 L1.63857024,10.7637838 C1.63857024,11.1916265 1.2717638,11.5384615 0.819285121,11.5384615 C0.366806443,11.5384615 0,11.1916265 0,10.7637838 L0,2.32403317 C0,1.04050509 1.10041933,0 2.45785536,0 L10.0140482,0 Z" id="Path-22"></path>
                        <path d="M10.0140482,18.4615385 C10.4665269,18.4615385 10.8333333,18.8083735 10.8333333,19.2362162 C10.8333333,19.6640589 10.4665269,20.0108939 10.0140482,20.0108939 L2.45785536,20.0108939 C2.00537668,20.0108939 1.63857024,20.3577289 1.63857024,20.7855716 L1.63857024,29.2253223 C1.63857024,29.653165 1.2717638,30 0.819285121,30 C0.366806443,30 0,29.653165 0,29.2253223 L0,20.7855716 C0,19.5020436 1.10041933,18.4615385 2.45785536,18.4615385 L10.0140482,18.4615385 Z" id="Path-22" transform="translate(5.416667, 24.230769) scale(1, -1) translate(-5.416667, -24.230769) "></path>
                    </g>
                    <g id="人员" transform="translate(6.000000, 7.000000)">
                        <path d="M7.58293226,0 C4.79651927,0 2.52777778,2.1535938 2.52777778,4.80038086 C2.52777778,7.44557524 4.7948603,9.6 7.58293226,9.6 C10.3701656,9.6 12.6388889,7.44559255 12.6388889,4.80038086 C12.6388889,2.1535938 10.3701656,0 7.58293226,0 Z" id="Shape"></path>
                        <path d="M11.4921018,9.6 C10.4116604,10.4468047 9.06616512,10.9714635 7.58373565,10.9714635 C6.1012879,10.9714635 4.7566521,10.445191 3.6737237,9.6 C1.6235514,10.8941862 0.196074814,13.1669221 0,15.799137 C0.717825469,15.8958878 1.99520113,16 3.81810074,16 L11.3460606,16 C13.1698014,16 14.4479817,15.8958878 15.1666667,15.799137 C14.9722011,13.165254 13.5447428,10.8941862 11.4921018,9.6 Z" id="Shape"></path>
                    </g>
                </g>
            </g>
        </g>
    </g>
</svg>