<?xml version="1.0" encoding="UTF-8"?>
<svg width="22px" height="22px" viewBox="0 0 22 22" version="1.1" xmlns="http://www.w3.org/2000/svg" xmlns:xlink="http://www.w3.org/1999/xlink">
    <!-- Generator: Sketch 50.2 (55047) - http://www.bohemiancoding.com/sketch -->
    <title>用户认证_icon_定位</title>
    <desc>Created with Sketch.</desc>
    <defs></defs>
    <g id="用户认证" stroke="none" stroke-width="1" fill="none" fill-rule="evenodd">
        <g id="用户认证-初始化-1" transform="translate(-341.000000, -126.000000)">
            <g id="用户认证_icon_定位" transform="translate(341.000000, 126.000000)">
                <rect id="Rectangle" opacity="0" x="0" y="0" width="22" height="22"></rect>
                <g id="定位" transform="translate(4.000000, 2.000000)" fill="#8795A8" fill-rule="nonzero">
                    <path d="M7.00000991,1.92284684e-05 C3.14019006,1.92284684e-05 0,3.03900174 0,6.7743817 C0,7.26159263 0.0538285454,7.74820748 0.159959569,8.22072786 C0.208139685,8.43531757 0.422898933,9.09846899 0.445829576,9.15742347 C0.821955546,10.1095211 1.37718629,10.9212701 2.07765105,11.5903247 L1.08430034,10.3975251 C1.16641067,10.522837 6.09527018,17.5361517 6.09527018,17.5361517 C6.29484804,17.8177333 6.6250929,18 6.99921715,18 C6.99951443,18 6.9997919,18 7.00008919,18 C7.00028738,18 7.00058466,18 7.00086213,18 C7.37500619,18 7.70527088,17.8177141 7.90245063,17.5396897 C8.09963037,17.2616653 13.1332138,10.0425868 13.1569173,10.0002457 C13.5477094,9.31600065 13.8255923,8.51690396 13.9411374,7.66814014 C13.4681161,9.36889817 13.7607642,8.57358949 13.8401593,8.22063172 C13.9417716,7.78620293 14,7.28732032 14,6.77522775 C14,6.7749201 14,6.77463167 14,6.77432401 C14,3.03898251 10.8597901,0 6.99999009,0 L7.00000991,1.92284684e-05 Z M13.0469811,8.05292102 C12.9769604,8.36421069 12.7185001,9.06660741 12.6981459,9.11294802 C12.6207922,9.28910002 12.4013953,9.6985318 12.3795547,9.7355466 C12.3357546,9.80986463 7.23391436,17.0927816 7.23391436,17.0927816 C7.15812631,17.2007303 7.04513789,17.2124212 7.00002973,17.2124212 C6.95492157,17.2124212 6.84197279,17.2007303 6.76624419,17.0928585 C6.76624419,17.0928585 1.83385689,10.0744484 1.75600765,9.95453963 L1.7491899,9.9439832 C1.29854429,9.2566616 0.984015935,8.44287436 0.864170127,7.56938272 C1.18549642,8.82819363 0.995649718,8.24214838 0.95315767,8.05303639 C0.863317908,7.66923616 0.81182801,7.22848121 0.81182801,6.7760738 C0.81182801,6.77549695 0.81182801,6.77490087 0.81182801,6.77432401 C0.811788372,3.4732767 3.58782317,0.787598065 7.00000991,0.787598065 C10.4121966,0.787598065 13.1882314,3.4732767 13.1882314,6.77436247 C13.1882314,7.20513785 13.1407054,7.6353556 13.0469811,8.05290179 L13.0469811,8.05292102 Z" id="Shape"></path>
                    <path d="M6.99994989,4.00004018 C6.19883146,4.00004018 5.4455769,4.31194608 4.87906758,4.8782825 C4.31217743,5.44490017 4,6.19838817 4,6.99992969 C4,7.21852096 4.02311015,7.43562563 4.0687091,7.64525709 C4.14148703,7.98008484 4.27176974,8.2984394 4.45608971,8.59178282 C4.67819168,8.94089404 4.95821934,9.23214818 5.28558973,9.4598198 L4.57657116,8.76880941 C4.85114699,9.14373533 5.21307237,9.45437561 5.62332261,9.66708073 C6.04932704,9.88798227 6.51253219,10 7.00003007,10 C7.4873275,10 7.95043244,9.88796218 8.37653709,9.66704055 C8.96721886,9.35505429 9.43238828,8.87200796 9.71460068,8.28405549 L9.42527284,8.76625807 C9.64791598,8.46612448 9.81616107,8.11104675 9.90727879,7.72605611 C9.72813004,8.29866038 9.85853302,7.97992413 9.93141116,7.64461424 C9.97502581,7.45155642 10,7.22985131 10,7.00228013 C10,7.00143638 10,7.00061272 10,6.99976897 C10,6.19846853 9.68786266,5.44502071 9.12097251,4.87832268 C8.55424271,4.31194608 7.80104827,4 6.99996993,4 L6.99994989,4.00004018 Z M9.1291703,7.46945595 C9.04989828,7.82519662 8.89151459,8.13569628 8.67306054,8.39344153 C8.69773408,8.39221608 8.50659932,8.59140113 8.28295401,8.74691211 L8.76163274,8.28168495 C8.56147841,8.55499938 8.2977862,8.7813652 7.99917822,8.93627351 C7.69084914,9.09610369 7.3546997,9.17716386 6.99996993,9.17716386 C6.64505978,9.17716386 6.30879007,9.09610369 6.00050109,8.93627351 C5.70203341,8.78152591 5.43850155,8.55530072 5.23842739,8.28202647 L4.90748925,8.52546816 L5.23596204,8.27869165 C5.20631771,8.23821179 5.12229538,8.10708917 5.10882615,8.08384589 C4.95403025,7.82137966 4.85277051,7.51001617 4.82807693,7.17729779 C4.83916098,7.32955432 4.82098153,7.16813709 4.82098153,7.00250111 C4.82098153,7.00161719 4.82098153,7.00073326 4.82098153,6.99986942 C4.82098153,6.41870712 5.04749306,5.87211845 5.45880561,5.46097158 C5.87039877,5.04954347 6.41770642,4.82297676 6.99994989,4.82297676 C7.58215327,4.82297676 8.12950102,5.04958365 8.54109417,5.46105194 C8.95244681,5.87223898 9.17891825,6.41876739 9.17891825,6.99998996 C9.17891825,7.15965942 9.16216189,7.3176213 9.1291703,7.46947604 L9.1291703,7.46945595 Z" id="Shape"></path>
                </g>
            </g>
        </g>
    </g>
</svg>