<?xml version="1.0" encoding="UTF-8"?>
<svg width="57px" height="57px" viewBox="0 0 57 57" version="1.1" xmlns="http://www.w3.org/2000/svg" xmlns:xlink="http://www.w3.org/1999/xlink">
    <!-- Generator: Sketch 50.2 (55047) - http://www.bohemiancoding.com/sketch -->
    <title>用户认证_icon_相机大</title>
    <desc>Created with Sketch.</desc>
    <defs></defs>
    <g id="用户认证" stroke="none" stroke-width="1" fill="none" fill-rule="evenodd">
        <g id="用户认证-人脸录入-8" transform="translate(-159.000000, -240.000000)">
            <g id="用户认证_icon_相机大" transform="translate(159.000000, 240.000000)">
                <rect id="Rectangle" fill="#D8D8D8" opacity="0" x="0" y="0" width="57" height="57"></rect>
                <path d="M51.8526439,12.4934172 C54.1324699,12.4934172 55.9849557,14.3337048 56,16.6135309 L56,46.8270203 C55.9849557,49.1070497 54.1324699,50.947134 51.8526439,50.947134 L6.14755944,50.947134 C3.86753007,50.947134 2.01504433,49.1070497 2,46.8270203 L2,16.6135309 C2.01504433,14.3337048 3.86753007,12.4934172 6.14755944,12.4934172 L16.7223011,12.4934172 L20.3752273,7.46698417 C20.5738531,7.19069706 20.8871412,7.01911037 21.2266551,7 L37.2401257,7 C37.5849256,7.00426934 37.908582,7.16630085 38.1189993,7.43953843 L42.0469928,12.4934172 L51.8526439,12.4934172 Z M29.4670858,21.3927489 C33.719549,21.359814 37.569068,23.9031192 39.2064605,27.8278599 C40.8440562,31.7523973 39.9436327,36.2778947 36.9286674,39.2767991 C33.9139055,42.2759069 29.3835288,43.1521375 25.4677334,41.4938049 C21.5517347,39.8356757 19.0287597,35.9725354 19.0844644,31.7204789 C19.1735105,26.0327052 23.7787023,21.4517064 29.4670858,21.3927489 Z M29.4670858,44.5473975 C36.4866894,44.5927338 42.2153267,38.9415545 42.2659488,31.9217476 C42.3161644,24.9021441 36.6690511,19.1692374 29.6496508,19.113736 C22.6300472,19.0582347 16.8928713,24.700672 16.832084,31.7204789 C16.7865444,38.7486211 22.4389436,44.4870169 29.4670858,44.5473975 Z M47.0457768,21.9420703 C47.7124033,21.9420703 48.3135666,21.5405493 48.568507,20.9247482 C48.8234475,20.3089472 48.682356,19.6000339 48.2111025,19.1287804 C47.739849,18.6575269 47.0309358,18.5164354 46.415338,18.7715792 C45.7993336,19.0265196 45.3978126,19.6274796 45.3978126,20.2941061 C45.3978126,21.2042882 46.1357981,21.9420703 47.0457768,21.9420703 Z" id="Fill-1" fill="#FFFFFF"></path>
            </g>
        </g>
    </g>
</svg>