<?xml version="1.0" encoding="UTF-8"?>
<svg width="28px" height="28px" viewBox="0 0 28 28" version="1.1" xmlns="http://www.w3.org/2000/svg" xmlns:xlink="http://www.w3.org/1999/xlink">
    <!-- Generator: Sketch 50.2 (55047) - http://www.bohemiancoding.com/sketch -->
    <title>登录_icon_微信</title>
    <desc>Created with Sketch.</desc>
    <defs></defs>
    <g id="登录" stroke="none" stroke-width="1" fill="none" fill-rule="evenodd">
        <g id="登录-默认页-1" transform="translate(-174.000000, -612.000000)">
            <g id="登录_icon_微信" transform="translate(174.000000, 612.000000)">
                <rect id="Rectangle-3" fill="#D8D8D8" opacity="0" x="0" y="0" width="28" height="28"></rect>
                <path d="M21.6963918,15.2813308 C21.0942095,15.2813308 20.6041595,14.8127166 20.6041595,14.2325104 C20.6041595,13.6552765 21.0912373,13.1868424 21.6963918,13.1868424 C22.3013662,13.1868424 22.7886241,13.6552765 22.7886241,14.2325104 C22.7886241,14.8096544 22.3013662,15.2813308 21.6963918,15.2813308 M16.2817947,15.2813308 C15.6797925,15.2813308 15.1895624,14.8127166 15.1895624,14.2325104 C15.1895624,13.6552765 15.6797925,13.1868424 16.2817947,13.1868424 C16.8869492,13.1868424 17.374027,13.6552765 17.374027,14.2325104 C17.3769992,14.8096544 16.8869492,15.2813308 16.2817947,15.2813308 M26.7694581,16.45111 C26.7694581,12.8952082 23.288131,10.0125508 18.9906244,10.0125508 C14.6930277,10.0125508 11.2084583,12.8952082 11.2084583,16.45111 C11.2084583,20.0070119 14.6930277,22.8896693 18.9906244,22.8896693 C19.8501257,22.8896693 20.6785542,22.7747448 21.4512317,22.5606576 C21.4945536,22.5483185 21.5846197,22.5233702 21.5846197,22.5233702 L24.3958546,23.9415519 L23.6449731,21.6111802 C23.6449731,21.6111802 23.6914472,21.5801974 23.7163055,21.5676782 C25.5718484,20.3886222 26.7694581,18.5362316 26.7694581,16.45111 M7.00092777,9.2369011 C6.28733363,9.2369011 5.70703739,8.68137305 5.70703739,7.99876167 C5.70703739,7.31299796 6.28409124,6.7607123 7.00092777,6.7607123 C7.71470205,6.7607123 8.29481815,7.31615028 8.29481815,7.99876167 C8.29481815,8.68137305 7.71767423,9.2369011 7.00092777,9.2369011 M13.4115665,6.75755998 C14.1251606,6.75755998 14.7024847,7.31299796 14.7024847,7.99569942 C14.7024847,8.67822074 14.1251606,9.23365872 13.4115665,9.23365872 C12.6979723,9.23365872 12.1176761,8.67822074 12.1176761,7.99569942 C12.1176761,7.31299796 12.69482,6.75755998 13.4115665,6.75755998 M18.9222642,9.44774597 C19.05268,9.44774597 19.1830057,9.45089828 19.3101791,9.45711285 C18.63063,5.80186801 14.8140766,3 10.2094445,3 C5.12376897,3 1,6.41323707 1,10.6206775 C1,13.0874094 2.41800154,15.284303 4.61480513,16.6744741 C4.64290577,16.6930277 4.69856665,16.7273429 4.69856665,16.7273429 L3.80799251,19.485709 L7.13746806,17.8071461 C7.13746806,17.8071461 7.2430256,17.8380388 7.29256198,17.8503778 C8.20799438,18.1017525 9.18854461,18.2382928 10.2062922,18.2382928 C10.4141648,18.2382928 10.6189753,18.229106 10.8237857,18.2196491 C10.6343766,17.639533 10.5321515,17.0314063 10.5321515,16.4014836 C10.5321515,12.5630442 14.2898016,9.44774597 18.9222642,9.44774597" id="Fill-1" fill="#FFFFFF"></path>
            </g>
        </g>
    </g>
</svg>