<?xml version="1.0" encoding="UTF-8"?>
<svg width="18px" height="18px" viewBox="0 0 18 18" version="1.1" xmlns="http://www.w3.org/2000/svg" xmlns:xlink="http://www.w3.org/1999/xlink">
    <!-- Generator: Sketch 49.3 (51167) - http://www.bohemiancoding.com/sketch -->
    <title>缴费记录_icon_日期</title>
    <desc>Created with Sketch.</desc>
    <defs></defs>
    <g id="Page-1" stroke="none" stroke-width="1" fill="none" fill-rule="evenodd">
        <g id="月卡缴费记录" transform="translate(-15.000000, -204.000000)" fill="#4777FA" fill-rule="nonzero">
            <g id="Group-3" transform="translate(0.000000, 126.000000)">
                <g id="缴费记录_icon_日期" transform="translate(15.000000, 78.000000)">
                    <path d="M12.8571429,0.692307692 C12.8571429,0.304615385 12.5742857,0 12.2142857,0 C11.8542857,0 11.5714286,0.304615385 11.5714286,0.692307692 L11.5714286,1.38461538 L12.8571429,1.38461538 L12.8571429,0.692307692 Z M6.42857143,0.692307692 C6.42857143,0.304615385 6.14571429,0 5.78571429,0 C5.42571429,0 5.14285714,0.304615385 5.14285714,0.692307692 L5.14285714,1.38461538 L6.42857143,1.38461538 L6.42857143,0.692307692 Z M15.4285714,1.38461538 L12.8571429,1.38461538 L12.8571429,3.46153846 C12.8571429,3.84923077 12.5742857,4.15384615 12.2142857,4.15384615 C11.8542857,4.15384615 11.5714286,3.84923077 11.5714286,3.46153846 L11.5714286,1.38461538 L6.42857143,1.38461538 L6.42857143,3.46153846 C6.42857143,3.84923077 6.14571429,4.15384615 5.78571429,4.15384615 C5.42571429,4.15384615 5.14285714,3.84923077 5.14285714,3.46153846 L5.14285714,1.38461538 L2.57142857,1.38461538 C1.15714286,1.38461538 0,2.63076923 0,4.15384615 L0,15.2307692 C0,16.7538462 1.15714286,18 2.57142857,18 L15.4285714,18 C16.8428571,18 18,16.7538462 18,15.2307692 L18,4.15384615 C18,2.63076923 16.8428571,1.38461538 15.4285714,1.38461538 Z M5.78571429,13.8461538 L4.5,13.8461538 C4.14,13.8461538 3.85714286,13.5415385 3.85714286,13.1538462 C3.85714286,12.7661538 4.14,12.4615385 4.5,12.4615385 L5.78571429,12.4615385 C6.14571429,12.4615385 6.42857143,12.7661538 6.42857143,13.1538462 C6.42857143,13.5415385 6.14571429,13.8461538 5.78571429,13.8461538 Z M5.78571429,11.0769231 L4.5,11.0769231 C4.14,11.0769231 3.85714286,10.7723077 3.85714286,10.3846154 C3.85714286,9.99692308 4.14,9.69230769 4.5,9.69230769 L5.78571429,9.69230769 C6.14571429,9.69230769 6.42857143,9.99692308 6.42857143,10.3846154 C6.42857143,10.7723077 6.14571429,11.0769231 5.78571429,11.0769231 Z M9.64285714,13.8461538 L8.35714286,13.8461538 C7.99714286,13.8461538 7.71428571,13.5415385 7.71428571,13.1538462 C7.71428571,12.7661538 7.99714286,12.4615385 8.35714286,12.4615385 L9.64285714,12.4615385 C10.0028571,12.4615385 10.2857143,12.7661538 10.2857143,13.1538462 C10.2857143,13.5415385 10.0028571,13.8461538 9.64285714,13.8461538 Z M9.64285714,11.0769231 L8.35714286,11.0769231 C7.99714286,11.0769231 7.71428571,10.7723077 7.71428571,10.3846154 C7.71428571,9.99692308 7.99714286,9.69230769 8.35714286,9.69230769 L9.64285714,9.69230769 C10.0028571,9.69230769 10.2857143,9.99692308 10.2857143,10.3846154 C10.2857143,10.7723077 10.0028571,11.0769231 9.64285714,11.0769231 Z M13.5,13.8461538 L12.2142857,13.8461538 C11.8542857,13.8461538 11.5714286,13.5415385 11.5714286,13.1538462 C11.5714286,12.7661538 11.8542857,12.4615385 12.2142857,12.4615385 L13.5,12.4615385 C13.86,12.4615385 14.1428571,12.7661538 14.1428571,13.1538462 C14.1428571,13.5415385 13.86,13.8461538 13.5,13.8461538 Z M13.5,11.0769231 L12.2142857,11.0769231 C11.8542857,11.0769231 11.5714286,10.7723077 11.5714286,10.3846154 C11.5714286,9.99692308 11.8542857,9.69230769 12.2142857,9.69230769 L13.5,9.69230769 C13.86,9.69230769 14.1428571,9.99692308 14.1428571,10.3846154 C14.1428571,10.7723077 13.86,11.0769231 13.5,11.0769231 Z M16.0714286,6.92307692 L1.92857143,6.92307692 C1.56857143,6.92307692 1.28571429,6.61846154 1.28571429,6.23076923 C1.28571429,5.84307692 1.56857143,5.53846154 1.92857143,5.53846154 L16.0714286,5.53846154 C16.4314286,5.53846154 16.7142857,5.84307692 16.7142857,6.23076923 C16.7142857,6.61846154 16.4314286,6.92307692 16.0714286,6.92307692 Z" id="Shape"></path>
                </g>
            </g>
        </g>
    </g>
</svg>