<?xml version="1.0" encoding="UTF-8"?>
<svg width="130px" height="130px" viewBox="0 0 130 130" version="1.1" xmlns="http://www.w3.org/2000/svg" xmlns:xlink="http://www.w3.org/1999/xlink">
    <!-- Generator: Sketch 50.2 (55047) - http://www.bohemiancoding.com/sketch -->
    <title>访客登记_icon_人脸识别</title>
    <desc>Created with Sketch.</desc>
    <defs></defs>
    <g id="访客登记" stroke="none" stroke-width="1" fill="none" fill-rule="evenodd" opacity="0.28294837">
        <g id="访客记录-通行二维码-8" transform="translate(-123.000000, -269.000000)" fill="#4777FA" fill-rule="nonzero">
            <g id="访客登记_icon_人脸识别" transform="translate(123.000000, 269.000000)">
                <path d="M2.78571429,48.2857143 C1.85714286,48.2857143 0,47.3571429 0,45.5 L0,21.3571429 C0,9.28571429 10.2142857,1.42108547e-14 21.3571429,1.42108547e-14 L47.3571429,1.42108547e-14 C49.2142857,1.42108547e-14 50.1428571,0.928571429 50.1428571,2.78571429 C50.1428571,4.64285714 50.1428571,5.57142857 48.2857143,5.57142857 L21.3571429,5.57142857 C13,5.57142857 5.57142857,13 5.57142857,21.3571429 L5.57142857,45.5 C5.57142857,47.3571429 4.64285714,48.2857143 2.78571429,48.2857143 Z M49.2142857,130 L21.3571429,130 C10.2142857,130 0,120.714286 0,108.642857 L0,83.5714286 C0,81.7142857 0.928571429,80.7857143 2.78571429,80.7857143 C4.64285714,80.7857143 5.57142857,81.7142857 5.57142857,83.5714286 L5.57142857,108.642857 C5.57142857,117 13,124.428571 21.3571429,124.428571 L48.2857143,124.428571 C50.1428571,124.428571 51.0714286,125.357143 51.0714286,127.214286 C51.0714286,129.071429 50.1428571,130 49.2142857,130 Z M108.642857,130 L80.7857143,130 C78.9285714,130 78,129.071429 78,127.214286 C78,125.357143 78.9285714,124.428571 80.7857143,124.428571 L107.714286,124.428571 C116.071429,124.428571 123.5,117 123.5,108.642857 L123.5,82.6428571 C123.5,80.7857143 124.428571,79.8571429 126.285714,79.8571429 C128.142857,79.8571429 130,80.7857143 130,82.6428571 L130,108.642857 C130,120.714286 119.785714,130 108.642857,130 Z M127.214286,48.2857143 C125.357143,48.2857143 124.428571,47.3571429 124.428571,45.5 L124.428571,21.3571429 C124.428571,13 117,5.57142857 108.642857,5.57142857 L80.7857143,5.57142857 C78.9285714,5.57142857 78,4.64285714 78,2.78571429 C78,0.928571429 79.8571429,0 80.7857143,0 L107.714286,0 C119.785714,2.06184276e-15 130,9.28571429 130,21.3571429 L130,45.5 C130,47.3571429 128.142857,48.2857143 127.214286,48.2857143 Z M127.214286,67.7857143 L2.78571429,67.7857143 C0.928571429,67.7857143 0,66.8571429 0,65 C0,63.1428571 0.928571429,62.2142857 2.78571429,62.2142857 L127.214286,62.2142857 C129.071429,62.2142857 130,63.1428571 130,65 C130,66.8571429 129.071429,67.7857143 127.214286,67.7857143 Z"></path>
            </g>
        </g>
    </g>
</svg>