<?xml version="1.0" encoding="UTF-8"?>
<svg width="36px" height="36px" viewBox="0 0 36 36" version="1.1" xmlns="http://www.w3.org/2000/svg" xmlns:xlink="http://www.w3.org/1999/xlink">
    <!-- Generator: Sketch 50.2 (55047) - http://www.bohemiancoding.com/sketch -->
    <title>icon_室内保修</title>
    <desc>Created with Sketch.</desc>
    <defs>
        <path d="M12,9 C13.1045695,9 14,8.1045695 14,7 L14,4 C14,2.8954305 13.1045695,2 12,2 L4,2 C2.8954305,2 2,2.8954305 2,4 L2,7 C2,8.1045695 2.8954305,9 4,9 L2,9 C0.8954305,9 1.3527075e-16,8.1045695 0,7 L0,2 C-1.3527075e-16,0.8954305 0.8954305,2.02906125e-16 2,0 L14,0 C15.1045695,-2.02906125e-16 16,0.8954305 16,2 L16,7 C16,8.1045695 15.1045695,9 14,9 L12,9 Z" id="path-1"></path>
        <filter x="-21.4%" y="-96.3%" width="142.8%" height="292.5%" filterUnits="objectBoundingBox" id="filter-3">
            <feGaussianBlur stdDeviation="1.28348214" in="SourceGraphic"></feGaussianBlur>
        </filter>
        <rect id="path-4" x="0" y="0" width="28" height="22" rx="2"></rect>
        <filter x="-41.1%" y="-246.4%" width="182.1%" height="592.9%" filterUnits="objectBoundingBox" id="filter-6">
            <feGaussianBlur stdDeviation="4.10714286" in="SourceGraphic"></feGaussianBlur>
        </filter>
        <path d="M2,0 L26,0 C27.1045695,-2.02906125e-16 28,0.8954305 28,2 L28,13 L0,13 L0,2 C-1.3527075e-16,0.8954305 0.8954305,2.02906125e-16 2,0 Z" id="path-7"></path>
        <filter x="-28.1%" y="-74.0%" width="156.1%" height="247.9%" filterUnits="objectBoundingBox" id="filter-9">
            <feGaussianBlur stdDeviation="2.71205357" in="SourceGraphic"></feGaussianBlur>
        </filter>
    </defs>
    <g id="Page-1" stroke="none" stroke-width="1" fill="none" fill-rule="evenodd">
        <g id="首页" transform="translate(-173.000000, -568.000000)">
            <g id="物业服务-copy" transform="translate(0.000000, 351.000000)">
                <g id="icon_室内保修" transform="translate(173.000000, 217.000000)">
                    <rect id="Rectangle-33-Copy-4" fill-opacity="0" fill="#D8D8D8" x="0" y="0" width="36" height="36"></rect>
                    <g id="室内报修" transform="translate(4.000000, 6.000000)">
                        <g id="Rectangle-23" transform="translate(6.000000, 0.000000)">
                            <mask id="mask-2" fill="white">
                                <use xlink:href="#path-1"></use>
                            </mask>
                            <use id="Mask" fill="#27A4C0" fill-rule="nonzero" xlink:href="#path-1"></use>
                            <rect fill="#197185" fill-rule="nonzero" filter="url(#filter-3)" mask="url(#mask-2)" x="-1" y="1" width="18" height="4"></rect>
                        </g>
                        <g id="Rectangle-21" transform="translate(0.000000, 3.000000)">
                            <mask id="mask-5" fill="white">
                                <use xlink:href="#path-4"></use>
                            </mask>
                            <use id="Mask" fill="#73DBF2" fill-rule="nonzero" xlink:href="#path-4"></use>
                            <rect fill="#5BC1D8" fill-rule="nonzero" filter="url(#filter-6)" mask="url(#mask-5)" x="-1" y="10" width="30" height="5"></rect>
                        </g>
                        <g id="Rectangle-25" transform="translate(0.000000, 3.000000)">
                            <mask id="mask-8" fill="white">
                                <use xlink:href="#path-7"></use>
                            </mask>
                            <use id="Mask" fill="#45C4E1" fill-rule="nonzero" xlink:href="#path-7"></use>
                            <rect fill="#59D1EC" fill-rule="nonzero" filter="url(#filter-9)" mask="url(#mask-8)" x="-1" y="-2" width="29" height="11"></rect>
                        </g>
                        <rect id="Rectangle-24" fill="#B4EFFF" fill-rule="nonzero" x="9" y="14" width="10" height="4"></rect>
                    </g>
                </g>
            </g>
        </g>
    </g>
</svg>