<?xml version="1.0" encoding="UTF-8"?>
<svg width="20px" height="20px" viewBox="0 0 20 20" version="1.1" xmlns="http://www.w3.org/2000/svg" xmlns:xlink="http://www.w3.org/1999/xlink">
    <!-- Generator: Sketch 50.2 (55047) - http://www.bohemiancoding.com/sketch -->
    <title>icon_定位_黑</title>
    <desc>Created with Sketch.</desc>
    <defs>
        <polygon id="path-1" points="0 0 14 0 14 18 0 18"></polygon>
    </defs>
    <g id="Page-1" stroke="none" stroke-width="1" fill="none" fill-rule="evenodd">
        <g id="首页-未认证" transform="translate(-10.000000, -34.000000)">
            <g id="导航栏-copy">
                <g id="icon_定位_黑" transform="translate(10.000000, 34.000000)">
                    <rect id="Rectangle-30" fill-opacity="0" fill="#D8D8D8" x="0" y="0" width="20" height="20"></rect>
                    <g id="icon_定位" transform="translate(3.000000, 1.000000)">
                        <mask id="mask-2" fill="white">
                            <use xlink:href="#path-1"></use>
                        </mask>
                        <g id="Clip-2"></g>
                        <path d="M7,10.2000335 C5.15101104,10.2000335 3.65211479,8.72255365 3.65211479,6.89998325 C3.65211479,5.07738237 5.15101104,3.59990252 7,3.59990252 C8.84898896,3.59990252 10.3478852,5.07738237 10.3478852,6.89998325 C10.3478852,8.72255365 8.84898896,10.2000335 7,10.2000335 M7,0 C3.13396026,0 0,3.04930518 0,6.81072518 C0,10.5722366 7,18 7,18 C7,18 14,10.5722366 14,6.81072518 C14,3.04930518 10.8660397,0 7,0" id="Fill-1" fill="#333537" mask="url(#mask-2)"></path>
                    </g>
                </g>
            </g>
        </g>
    </g>
</svg>