<?xml version="1.0" encoding="UTF-8"?>
<svg width="36px" height="36px" viewBox="0 0 36 36" version="1.1" xmlns="http://www.w3.org/2000/svg" xmlns:xlink="http://www.w3.org/1999/xlink">
    <!-- Generator: Sketch 50.2 (55047) - http://www.bohemiancoding.com/sketch -->
    <title>icon_最近来访</title>
    <desc>Created with Sketch.</desc>
    <defs>
        <rect id="path-1" x="0" y="0" width="29" height="25" rx="2"></rect>
        <filter x="-43.3%" y="-109.9%" width="186.6%" height="319.8%" filterUnits="objectBoundingBox" id="filter-3">
            <feGaussianBlur stdDeviation="4.76283482" in="SourceGraphic"></feGaussianBlur>
        </filter>
        <path d="M2,0 L27,0 C28.1045695,-2.02906125e-16 29,0.8954305 29,2 L29,7 L0,7 L0,2 C-1.3527075e-16,0.8954305 0.8954305,2.02906125e-16 2,0 Z" id="path-4"></path>
    </defs>
    <g id="Page-1" stroke="none" stroke-width="1" fill="none" fill-rule="evenodd">
        <g id="首页" transform="translate(-295.000000, -443.000000)">
            <g id="物业服务-copy" transform="translate(0.000000, 351.000000)">
                <g id="icon_最近来访" transform="translate(295.000000, 92.000000)">
                    <rect id="Rectangle-33-Copy-2" fill-opacity="0" fill="#D8D8D8" x="0" y="0" width="36" height="36"></rect>
                    <g id="最近来访" transform="translate(4.000000, 4.000000)">
                        <g id="Rectangle-15-Copy" transform="translate(0.000000, 3.000000)">
                            <mask id="mask-2" fill="white">
                                <use xlink:href="#path-1"></use>
                            </mask>
                            <use id="Mask" fill="#6EE6C7" fill-rule="nonzero" xlink:href="#path-1"></use>
                            <rect id="Rectangle-15" fill="#35CDA6" fill-rule="nonzero" filter="url(#filter-3)" mask="url(#mask-2)" x="-2" y="13" width="33" height="13"></rect>
                        </g>
                        <g id="Rectangle-17" transform="translate(0.000000, 3.000000)">
                            <mask id="mask-5" fill="white">
                                <use xlink:href="#path-4"></use>
                            </mask>
                            <use id="Mask" fill="#85FFDA" fill-rule="nonzero" xlink:href="#path-4"></use>
                        </g>
                        <rect id="Rectangle-7" fill="#FFFFFF" fill-rule="nonzero" x="4" y="13" width="5" height="4"></rect>
                        <rect id="Rectangle-7-Copy-3" fill="#FFFFFF" fill-rule="nonzero" x="4" y="20" width="5" height="4"></rect>
                        <rect id="Rectangle-7-Copy" fill="#FFFFFF" fill-rule="nonzero" x="12" y="13" width="5" height="4"></rect>
                        <rect id="Rectangle-7-Copy-4" fill="#FFFFFF" fill-rule="nonzero" x="12" y="20" width="5" height="4"></rect>
                        <rect id="Rectangle-7-Copy-2" fill="#FFFFFF" fill-rule="nonzero" x="20" y="13" width="5" height="4"></rect>
                        <rect id="Rectangle-16" fill="#6EE6C7" fill-rule="nonzero" x="7" y="0" width="2" height="6"></rect>
                        <rect id="Rectangle-16-Copy" fill="#6EE6C7" fill-rule="nonzero" x="20" y="0" width="2" height="6"></rect>
                        <polyline id="Path-3" stroke="#FFFFFF" stroke-linecap="round" stroke-linejoin="round" fill-rule="nonzero" points="21 22 23 23.5 25.5 20"></polyline>
                    </g>
                </g>
            </g>
        </g>
    </g>
</svg>