<?xml version="1.0" encoding="UTF-8"?>
<svg width="20px" height="20px" viewBox="0 0 20 20" version="1.1" xmlns="http://www.w3.org/2000/svg" xmlns:xlink="http://www.w3.org/1999/xlink">
    <!-- Generator: Sketch 50.2 (55047) - http://www.bohemiancoding.com/sketch -->
    <title>icon_消息_黑</title>
    <desc>Created with Sketch.</desc>
    <defs></defs>
    <g id="Page-1" stroke="none" stroke-width="1" fill="none" fill-rule="evenodd">
        <g id="首页-未认证" transform="translate(-344.000000, -34.000000)" fill="#333537" fill-rule="nonzero">
            <g id="导航栏-copy">
                <g id="icon_消息_黑" transform="translate(344.000000, 34.000000)">
                    <g id="消息" transform="translate(1.000000, 1.000000)">
                        <path d="M0,0 L18,0 L18,15 L0,15 L0,0 Z M3.76470588,8.58333333 C4.64186401,8.58333333 5.35294118,7.85579605 5.35294118,6.95833333 C5.35294118,6.06087061 4.64186401,5.33333333 3.76470588,5.33333333 C2.88754775,5.33333333 2.17647059,6.06087061 2.17647059,6.95833333 C2.17647059,7.85579605 2.88754775,8.58333333 3.76470588,8.58333333 Z M9,8.58333333 C9.87715813,8.58333333 10.5882353,7.85579605 10.5882353,6.95833333 C10.5882353,6.06087061 9.87715813,5.33333333 9,5.33333333 C8.12284187,5.33333333 7.41176471,6.06087061 7.41176471,6.95833333 C7.41176471,7.85579605 8.12284187,8.58333333 9,8.58333333 Z M14.2352941,8.58333333 C15.1124522,8.58333333 15.8235294,7.85579605 15.8235294,6.95833333 C15.8235294,6.06087061 15.1124522,5.33333333 14.2352941,5.33333333 C13.358136,5.33333333 12.6470588,6.06087061 12.6470588,6.95833333 C12.6470588,7.85579605 13.358136,8.58333333 14.2352941,8.58333333 Z" id="Combined-Shape"></path>
                        <polygon id="Rectangle-6" points="2 13 10 13 2 18"></polygon>
                    </g>
                </g>
            </g>
        </g>
    </g>
</svg>